<?xml version="1.0" encoding="UTF-8" standalone="no"?>
<svg
   xmlns:dc="http://purl.org/dc/elements/1.1/"
   xmlns:cc="http://creativecommons.org/ns#"
   xmlns:rdf="http://www.w3.org/1999/02/22-rdf-syntax-ns#"
   xmlns:svg="http://www.w3.org/2000/svg"
   xmlns="http://www.w3.org/2000/svg"
   xmlns:xlink="http://www.w3.org/1999/xlink"
   xmlns:sodipodi="http://sodipodi.sourceforge.net/DTD/sodipodi-0.dtd"
   xmlns:inkscape="http://www.inkscape.org/namespaces/inkscape"
   version="1.1"
   width="426.90845"
   height="381.67999"
   viewBox="-18 -120 147.776 132.12"
   id="svg1136"
   sodipodi:docname="pdf-log_normal_distributions.svg"
   inkscape:version="1.0.2 (e86c870879, 2021-01-15)">
  <metadata
     id="metadata1140">
    <rdf:RDF>
      <cc:Work
         rdf:about="">
        <dc:format>image/svg+xml</dc:format>
        <dc:type
           rdf:resource="http://purl.org/dc/dcmitype/StillImage" />
        <dc:title>Probability distribution function of log-normal distribution</dc:title>
      </cc:Work>
    </rdf:RDF>
  </metadata>
  <sodipodi:namedview
     pagecolor="#ffffff"
     bordercolor="#666666"
     borderopacity="1"
     objecttolerance="10"
     gridtolerance="10"
     guidetolerance="10"
     inkscape:pageopacity="0"
     inkscape:pageshadow="2"
     inkscape:window-width="1920"
     inkscape:window-height="1009"
     id="namedview1138"
     showgrid="false"
     fit-margin-top="0"
     fit-margin-left="0"
     fit-margin-right="0"
     fit-margin-bottom="0"
     inkscape:zoom="2.0435897"
     inkscape:cx="236.42849"
     inkscape:cy="233.97529"
     inkscape:window-x="0"
     inkscape:window-y="34"
     inkscape:window-maximized="1"
     inkscape:current-layer="svg1136" />
  <title
     id="title1081">Probability distribution function of log-normal distribution</title>
  <defs
     id="defs1086">
    <pattern
       inkscape:collect="always"
       xlink:href="#grid"
       id="pattern1142"
       patternTransform="translate(-0.224)" />
    <pattern
       id="grid"
       width="20"
       height="15"
       patternUnits="userSpaceOnUse">
      <path
         d="M0,15v-15h20v15h-20"
         fill="none"
         stroke="#555"
         stroke-width=".25"
         id="path1083" />
    </pattern>
  </defs>
  <rect
     y="-120"
     width="130"
     height="120"
     fill="url(#grid)"
     id="rect1088"
     x="-0.22400001"
     style="fill:url(#pattern1142)" />
  <g
     font-size="6px"
     stroke="none"
     fill="#000000"
     text-anchor="middle"
     font-family="'New Century Schoolbook'"
     id="g1124"
     transform="translate(-0.224)">
    <g
       aria-label="00.51.01.52.02.5"
       id="text1102">
      <path
         d="m 0.03600073,1.776 c -0.84,0 -1.45200003,0.912 -1.45200003,2.172 0,1.236 0.59400003,2.142 1.40400003,2.142 0.84,0 1.42799997,-0.876 1.42799997,-2.124 0,-0.636 -0.132,-1.164 -0.384,-1.578 C 0.79800073,2.01 0.41400073,1.776 0.03600073,1.776 Z m -0.042,0.258 c 0.198,0 0.39,0.132 0.534,0.372 0.162,0.282 0.216,0.624 0.216,1.446 0,0.846 -0.042,1.242 -0.162,1.506 -0.138,0.294 -0.354,0.474 -0.58199999757812,0.474 C -0.20399927,5.832 -0.38999927,5.7 -0.53399927,5.46 c -0.168,-0.282 -0.216,-0.654 -0.216,-1.638 0,-0.702 0.042,-1.05 0.162,-1.314 0.138,-0.3 0.354,-0.474 0.582,-0.474 z"
         id="path1144" />
      <path
         d="m 17.534002,1.776 c -0.84,0 -1.452,0.912 -1.452,2.172 0,1.236 0.594,2.142 1.404,2.142 0.84,0 1.428,-0.876 1.428,-2.124 0,-0.636 -0.132,-1.164 -0.384,-1.578 -0.234,-0.378 -0.618,-0.612 -0.996,-0.612 z m -0.042,0.258 c 0.198,0 0.39,0.132 0.534,0.372 0.162,0.282 0.216,0.624 0.216,1.446 0,0.846 -0.042,1.242 -0.162,1.506 -0.138,0.294 -0.354,0.474 -0.582,0.474 -0.204,0 -0.39,-0.132 -0.534,-0.372 -0.168,-0.282 -0.216,-0.654 -0.216,-1.638 0,-0.702 0.042,-1.05 0.162,-1.314 0.138,-0.3 0.354,-0.474 0.582,-0.474 z"
         id="path1146" />
      <path
         d="m 19.988,5.334 c -0.21,0 -0.378,0.168 -0.378,0.372 0,0.21 0.168,0.378 0.372,0.378 0.21,0 0.378,-0.168 0.378,-0.378 0,-0.204 -0.168,-0.372 -0.372,-0.372 z"
         id="path1148" />
      <path
         d="m 21.818,2.454 c 0.324,0.078 0.486,0.102 0.726,0.102 0.51,0 0.882,-0.174 1.08,-0.51 0.066,-0.108 0.09,-0.168 0.09,-0.216 0,-0.036 -0.012,-0.054 -0.048,-0.054 -0.018,0 -0.042,0.006 -0.078,0.024 -0.294,0.126 -0.45,0.156 -0.798,0.156 -0.384,0 -0.624,-0.036 -1.236,-0.18 -0.024,0.504 -0.078,1.146 -0.162,1.89 -0.126,0.132 -0.168,0.21 -0.168,0.306 0,0.126 0.078,0.204 0.192,0.204 0.156,0 0.246,-0.126 0.27,-0.366 0.21,-0.15 0.408,-0.216 0.648,-0.216 0.54,0 0.858,0.408 0.858,1.098 0,0.402 -0.102,0.744 -0.282,0.93 -0.12,0.126 -0.366,0.21 -0.612,0.21 -0.36,0 -0.732,-0.186 -0.732,-0.372 0,-0.042 0.036,-0.09 0.108,-0.132 0.186,-0.114 0.24,-0.192 0.24,-0.354 0,-0.21 -0.162,-0.372 -0.378,-0.372 -0.24,0 -0.432,0.222 -0.432,0.504 0,0.3 0.174,0.6 0.444,0.786 0.204,0.132 0.444,0.198 0.762,0.198 0.942,0 1.536,-0.552 1.536,-1.434 0,-0.816 -0.54,-1.362 -1.356,-1.362 -0.258,0 -0.444,0.042 -0.774,0.18 z"
         id="path1150" />
      <path
         d="m 37.762002,1.776 c -0.204,0.246 -0.756,0.432 -1.308,0.444 v 0.258 h 0.528 c 0.348,0.006 0.384,0.042 0.372,0.378 v 2.406 c 0,0.306 0,0.318 -0.036,0.372 -0.048,0.06 -0.162,0.084 -0.498,0.084 h -0.39 V 6 h 2.376 V 5.718 h -0.33 c -0.336,0 -0.45,-0.024 -0.498,-0.084 -0.042,-0.054 -0.042,-0.06 -0.042,-0.372 V 2.784 c 0,-0.336 0.012,-0.618 0.042,-1.008 z"
         id="path1152" />
      <path
         d="m 39.988,5.334 c -0.21,0 -0.378,0.168 -0.378,0.372 0,0.21 0.168,0.378 0.372,0.378 0.21,0 0.378,-0.168 0.378,-0.378 0,-0.204 -0.168,-0.372 -0.372,-0.372 z"
         id="path1154" />
      <path
         d="m 42.538,1.776 c -0.84,0 -1.452,0.912 -1.452,2.172 0,1.236 0.594,2.142 1.404,2.142 0.84,0 1.428,-0.876 1.428,-2.124 0,-0.636 -0.132,-1.164 -0.384,-1.578 C 43.3,2.01 42.916,1.776 42.538,1.776 Z m -0.042,0.258 c 0.198,0 0.39,0.132 0.534,0.372 0.162,0.282 0.216,0.624 0.216,1.446 0,0.846 -0.042,1.242 -0.162,1.506 C 42.946,5.652 42.73,5.832 42.502,5.832 42.298,5.832 42.112,5.7 41.968,5.46 41.8,5.178 41.752,4.806 41.752,3.822 c 0,-0.702 0.042,-1.05 0.162,-1.314 0.138,-0.3 0.354,-0.474 0.582,-0.474 z"
         id="path1156" />
      <path
         d="m 57.762002,1.776 c -0.204,0.246 -0.756,0.432 -1.308,0.444 v 0.258 h 0.528 c 0.348,0.006 0.384,0.042 0.372,0.378 v 2.406 c 0,0.306 0,0.318 -0.036,0.372 -0.048,0.06 -0.162,0.084 -0.498,0.084 h -0.39 V 6 h 2.376 V 5.718 h -0.33 c -0.336,0 -0.45,-0.024 -0.498,-0.084 -0.042,-0.054 -0.042,-0.06 -0.042,-0.372 V 2.784 c 0,-0.336 0.012,-0.618 0.042,-1.008 z"
         id="path1158" />
      <path
         d="m 59.988,5.334 c -0.21,0 -0.378,0.168 -0.378,0.372 0,0.21 0.168,0.378 0.372,0.378 0.21,0 0.378,-0.168 0.378,-0.378 0,-0.204 -0.168,-0.372 -0.372,-0.372 z"
         id="path1160" />
      <path
         d="m 61.818,2.454 c 0.324,0.078 0.486,0.102 0.726,0.102 0.51,0 0.882,-0.174 1.08,-0.51 0.066,-0.108 0.09,-0.168 0.09,-0.216 0,-0.036 -0.012,-0.054 -0.048,-0.054 -0.018,0 -0.042,0.006 -0.078,0.024 -0.294,0.126 -0.45,0.156 -0.798,0.156 -0.384,0 -0.624,-0.036 -1.236,-0.18 -0.024,0.504 -0.078,1.146 -0.162,1.89 -0.126,0.132 -0.168,0.21 -0.168,0.306 0,0.126 0.078,0.204 0.192,0.204 0.156,0 0.246,-0.126 0.27,-0.366 0.21,-0.15 0.408,-0.216 0.648,-0.216 0.54,0 0.858,0.408 0.858,1.098 0,0.402 -0.102,0.744 -0.282,0.93 -0.12,0.126 -0.366,0.21 -0.612,0.21 -0.36,0 -0.732,-0.186 -0.732,-0.372 0,-0.042 0.036,-0.09 0.108,-0.132 0.186,-0.114 0.24,-0.192 0.24,-0.354 0,-0.21 -0.162,-0.372 -0.378,-0.372 -0.24,0 -0.432,0.222 -0.432,0.504 0,0.3 0.174,0.6 0.444,0.786 0.204,0.132 0.444,0.198 0.762,0.198 0.942,0 1.536,-0.552 1.536,-1.434 0,-0.816 -0.54,-1.362 -1.356,-1.362 -0.258,0 -0.444,0.042 -0.774,0.18 z"
         id="path1162" />
      <path
         d="m 78.860002,4.704 h -0.264 l -0.06,0.306 c -0.078,0.39 -0.126,0.426 -0.498,0.426 h -1.344 c 0.414,-0.432 0.552,-0.558 0.936,-0.858 0.546,-0.42 0.78,-0.63 0.918,-0.81 0.192,-0.264 0.288,-0.528 0.288,-0.822 0,-0.684 -0.564,-1.17 -1.35,-1.17 -0.762,0 -1.344,0.486 -1.344,1.128 0,0.378 0.192,0.636 0.474,0.636 0.222,0 0.372,-0.15 0.372,-0.366 0,-0.15 -0.084,-0.288 -0.21,-0.342 -0.222,-0.09 -0.234,-0.102 -0.234,-0.18 0,-0.09 0.06,-0.228 0.144,-0.33 0.15,-0.186 0.396,-0.288 0.678,-0.288 0.498,0 0.792,0.306 0.792,0.81 0,0.444 -0.21,0.846 -0.708,1.374 -0.444,0.468 -0.72,0.762 -0.822,0.876 -0.216,0.252 -0.324,0.39 -0.588,0.738 V 6 h 2.706 z"
         id="path1164" />
      <path
         d="m 79.988,5.334 c -0.21,0 -0.378,0.168 -0.378,0.372 0,0.21 0.168,0.378 0.372,0.378 0.21,0 0.378,-0.168 0.378,-0.378 0,-0.204 -0.168,-0.372 -0.372,-0.372 z"
         id="path1166" />
      <path
         d="m 82.538,1.776 c -0.84,0 -1.452,0.912 -1.452,2.172 0,1.236 0.594,2.142 1.404,2.142 0.84,0 1.428,-0.876 1.428,-2.124 0,-0.636 -0.132,-1.164 -0.384,-1.578 C 83.3,2.01 82.916,1.776 82.538,1.776 Z m -0.042,0.258 c 0.198,0 0.39,0.132 0.534,0.372 0.162,0.282 0.216,0.624 0.216,1.446 0,0.846 -0.042,1.242 -0.162,1.506 C 82.946,5.652 82.73,5.832 82.502,5.832 82.298,5.832 82.112,5.7 81.968,5.46 81.8,5.178 81.752,4.806 81.752,3.822 c 0,-0.702 0.042,-1.05 0.162,-1.314 0.138,-0.3 0.354,-0.474 0.582,-0.474 z"
         id="path1168" />
      <path
         d="m 98.860002,4.704 h -0.264 l -0.06,0.306 c -0.078,0.39 -0.126,0.426 -0.498,0.426 h -1.344 c 0.414,-0.432 0.552,-0.558 0.936,-0.858 0.546,-0.42 0.78,-0.63 0.918,-0.81 0.192,-0.264 0.288,-0.528 0.288,-0.822 0,-0.684 -0.564,-1.17 -1.35,-1.17 -0.762,0 -1.344,0.486 -1.344,1.128 0,0.378 0.192,0.636 0.474,0.636 0.222,0 0.372,-0.15 0.372,-0.366 0,-0.15 -0.084,-0.288 -0.21,-0.342 -0.222,-0.09 -0.234,-0.102 -0.234,-0.18 0,-0.09 0.06,-0.228 0.144,-0.33 0.15,-0.186 0.396,-0.288 0.678,-0.288 0.498,0 0.792,0.306 0.792,0.81 0,0.444 -0.21,0.846 -0.708,1.374 -0.444,0.468 -0.72,0.762 -0.822,0.876 -0.216,0.252 -0.324,0.39 -0.588,0.738 V 6 h 2.706 z"
         id="path1170" />
      <path
         d="m 99.988,5.334 c -0.21,0 -0.378,0.168 -0.378,0.372 0,0.21 0.168,0.378 0.372,0.378 0.21,0 0.378,-0.168 0.378,-0.378 0,-0.204 -0.168,-0.372 -0.372,-0.372 z"
         id="path1172" />
      <path
         d="m 101.818,2.454 c 0.324,0.078 0.486,0.102 0.726,0.102 0.51,0 0.882,-0.174 1.08,-0.51 0.066,-0.108 0.09,-0.168 0.09,-0.216 0,-0.036 -0.012,-0.054 -0.048,-0.054 -0.018,0 -0.042,0.006 -0.078,0.024 -0.294,0.126 -0.45,0.156 -0.798,0.156 -0.384,0 -0.624,-0.036 -1.236,-0.18 -0.024,0.504 -0.078,1.146 -0.162,1.89 -0.126,0.132 -0.168,0.21 -0.168,0.306 0,0.126 0.078,0.204 0.192,0.204 0.156,0 0.246,-0.126 0.27,-0.366 0.21,-0.15 0.408,-0.216 0.648,-0.216 0.54,0 0.858,0.408 0.858,1.098 0,0.402 -0.102,0.744 -0.282,0.93 -0.12,0.126 -0.366,0.21 -0.612,0.21 -0.36,0 -0.732,-0.186 -0.732,-0.372 0,-0.042 0.036,-0.09 0.108,-0.132 0.186,-0.114 0.24,-0.192 0.24,-0.354 0,-0.21 -0.162,-0.372 -0.378,-0.372 -0.24,0 -0.432,0.222 -0.432,0.504 0,0.3 0.174,0.6 0.444,0.786 0.204,0.132 0.444,0.198 0.762,0.198 0.942,0 1.536,-0.552 1.536,-1.434 0,-0.816 -0.54,-1.362 -1.356,-1.362 -0.258,0 -0.444,0.042 -0.774,0.18 z"
         id="path1174" />
    </g>
    <g
       aria-label="0"
       id="text1104">
      <path
         d="m -4.9639993,-4.224 c -0.84,0 -1.452,0.912 -1.452,2.172 0,1.236 0.594,2.142 1.404,2.142 0.84,0 1.428,-0.876 1.428,-2.124 0,-0.636 -0.132,-1.164 -0.384,-1.578 -0.234,-0.378 -0.618,-0.612 -0.996,-0.612 z m -0.042,0.258 c 0.198,0 0.39,0.132 0.534,0.372 0.162,0.282 0.216,0.624 0.216,1.446 0,0.846 -0.042,1.242 -0.162,1.506 -0.138,0.294 -0.354,0.474 -0.582,0.474 -0.204,0 -0.39,-0.132 -0.534,-0.372 -0.168,-0.282 -0.216,-0.654 -0.216,-1.638 0,-0.702 0.042,-1.05 0.162,-1.314 0.138,-0.3 0.354,-0.474 0.582,-0.474 z"
         id="path1177" />
    </g>
    <g
       aria-label="0.5"
       id="text1106">
      <path
         d="m -7.4659982,-32.224 c -0.84,0 -1.452,0.912 -1.452,2.172 0,1.236 0.594,2.142 1.404,2.142 0.84,0 1.428,-0.876 1.428,-2.124 0,-0.636 -0.132,-1.164 -0.384,-1.578 -0.234,-0.378 -0.618,-0.612 -0.996,-0.612 z m -0.042,0.258 c 0.198,0 0.39,0.132 0.534,0.372 0.162,0.282 0.216,0.624 0.216,1.446 0,0.846 -0.042,1.242 -0.162,1.506 -0.138,0.294 -0.354,0.474 -0.582,0.474 -0.204,0 -0.39,-0.132 -0.534,-0.372 -0.168,-0.282 -0.216,-0.654 -0.216,-1.638 0,-0.702 0.042,-1.05 0.162,-1.314 0.138,-0.3 0.354,-0.474 0.582,-0.474 z"
         id="path1180" />
      <path
         d="m -5.0119996,-28.666 c -0.21,0 -0.378,0.168 -0.378,0.372 0,0.21 0.168,0.378 0.372,0.378 0.21,0 0.378,-0.168 0.378,-0.378 0,-0.204 -0.168,-0.372 -0.372,-0.372 z"
         id="path1182" />
      <path
         d="m -3.1820004,-31.546 c 0.324,0.078 0.486,0.102 0.726,0.102 0.51,0 0.882,-0.174 1.08,-0.51 0.066,-0.108 0.09,-0.168 0.09,-0.216 0,-0.036 -0.012,-0.054 -0.048,-0.054 -0.018,0 -0.042,0.006 -0.078,0.024 -0.294,0.126 -0.45,0.156 -0.798,0.156 -0.384,0 -0.624,-0.036 -1.236,-0.18 -0.024,0.504 -0.078,1.146 -0.162,1.89 -0.126,0.132 -0.168,0.21 -0.168,0.306 0,0.126 0.078,0.204 0.192,0.204 0.156,0 0.246,-0.126 0.27,-0.366 0.21,-0.15 0.408,-0.216 0.648,-0.216 0.54,0 0.858,0.408 0.858,1.098 0,0.402 -0.102,0.744 -0.282,0.93 -0.12,0.126 -0.366,0.21 -0.612,0.21 -0.36,0 -0.732,-0.186 -0.732,-0.372 0,-0.042 0.036,-0.09 0.108,-0.132 0.186,-0.114 0.24,-0.192 0.24,-0.354 0,-0.21 -0.162,-0.372 -0.378,-0.372 -0.24,0 -0.432,0.222 -0.432,0.504 0,0.3 0.174,0.6 0.444,0.786 0.204,0.132 0.444,0.198 0.762,0.198 0.942,0 1.536,-0.552 1.536,-1.434 0,-0.816 -0.54,-1.362 -1.356,-1.362 -0.258,0 -0.444,0.042 -0.774,0.18 z"
         id="path1184" />
    </g>
    <g
       aria-label="1.0"
       id="text1108">
      <path
         d="m -7.2379982,-62.224 c -0.204,0.246 -0.756,0.432 -1.308,0.444 v 0.258 h 0.528 c 0.348,0.006 0.384,0.042 0.372,0.378 v 2.406 c 0,0.306 0,0.318 -0.036,0.372 -0.048,0.06 -0.162,0.084 -0.498,0.084 h -0.39 V -58 h 2.376 v -0.282 h -0.33 c -0.336,0 -0.45,-0.024 -0.498,-0.084 -0.042,-0.054 -0.042,-0.06 -0.042,-0.372 v -2.478 c 0,-0.336 0.012,-0.618 0.042,-1.008 z"
         id="path1187" />
      <path
         d="m -5.0119996,-58.666 c -0.21,0 -0.378,0.168 -0.378,0.372 0,0.21 0.168,0.378 0.372,0.378 0.21,0 0.378,-0.168 0.378,-0.378 0,-0.204 -0.168,-0.372 -0.372,-0.372 z"
         id="path1189" />
      <path
         d="m -2.4620004,-62.224 c -0.84,0 -1.452,0.912 -1.452,2.172 0,1.236 0.594,2.142 1.404,2.142 0.84,0 1.428,-0.876 1.428,-2.124 0,-0.636 -0.132,-1.164 -0.384,-1.578 -0.234,-0.378 -0.618,-0.612 -0.996,-0.612 z m -0.042,0.258 c 0.198,0 0.39,0.132 0.534,0.372 0.162,0.282 0.216,0.624 0.216,1.446 0,0.846 -0.042,1.242 -0.162,1.506 -0.138,0.294 -0.354,0.474 -0.582,0.474 -0.204,0 -0.39,-0.132 -0.534,-0.372 -0.168,-0.282 -0.216,-0.654 -0.216,-1.638 0,-0.702 0.042,-1.05 0.162,-1.314 0.138,-0.3 0.354,-0.474 0.582,-0.474 z"
         id="path1191" />
    </g>
    <g
       aria-label="1.5"
       id="text1110">
      <path
         d="m -7.2379982,-92.224 c -0.204,0.246 -0.756,0.432 -1.308,0.444 v 0.258 h 0.528 c 0.348,0.006 0.384,0.042 0.372,0.378 v 2.406 c 0,0.306 0,0.318 -0.036,0.372 -0.048,0.06 -0.162,0.084 -0.498,0.084 h -0.39 V -88 h 2.376 v -0.282 h -0.33 c -0.336,0 -0.45,-0.024 -0.498,-0.084 -0.042,-0.054 -0.042,-0.06 -0.042,-0.372 v -2.478 c 0,-0.336 0.012,-0.618 0.042,-1.008 z"
         id="path1194" />
      <path
         d="m -5.0119996,-88.666 c -0.21,0 -0.378,0.168 -0.378,0.372 0,0.21 0.168,0.378 0.372,0.378 0.21,0 0.378,-0.168 0.378,-0.378 0,-0.204 -0.168,-0.372 -0.372,-0.372 z"
         id="path1196" />
      <path
         d="m -3.1820004,-91.546 c 0.324,0.078 0.486,0.102 0.726,0.102 0.51,0 0.882,-0.174 1.08,-0.51 0.066,-0.108 0.09,-0.168 0.09,-0.216 0,-0.036 -0.012,-0.054 -0.048,-0.054 -0.018,0 -0.042,0.006 -0.078,0.024 -0.294,0.126 -0.45,0.156 -0.798,0.156 -0.384,0 -0.624,-0.036 -1.236,-0.18 -0.024,0.504 -0.078,1.146 -0.162,1.89 -0.126,0.132 -0.168,0.21 -0.168,0.306 0,0.126 0.078,0.204 0.192,0.204 0.156,0 0.246,-0.126 0.27,-0.366 0.21,-0.15 0.408,-0.216 0.648,-0.216 0.54,0 0.858,0.408 0.858,1.098 0,0.402 -0.102,0.744 -0.282,0.93 -0.12,0.126 -0.366,0.21 -0.612,0.21 -0.36,0 -0.732,-0.186 -0.732,-0.372 0,-0.042 0.036,-0.09 0.108,-0.132 0.186,-0.114 0.24,-0.192 0.24,-0.354 0,-0.21 -0.162,-0.372 -0.378,-0.372 -0.24,0 -0.432,0.222 -0.432,0.504 0,0.3 0.174,0.6 0.444,0.786 0.204,0.132 0.444,0.198 0.762,0.198 0.942,0 1.536,-0.552 1.536,-1.434 0,-0.816 -0.54,-1.362 -1.356,-1.362 -0.258,0 -0.444,0.042 -0.774,0.18 z"
         id="path1198" />
    </g>
    <g
       font-size="8px"
       id="g1116">
      <g
         aria-label="x"
         id="text1112"
         style="font-style:italic">
        <path
           d="m 59.608008,10.76 0.12,0.536 c 0.136,0.6 0.336,0.824 0.736,0.824 0.296,0 0.44,-0.096 0.808,-0.544 0.136,-0.168 0.16,-0.192 0.376,-0.576 l -0.248,-0.136 c -0.08,0.128 -0.104,0.168 -0.224,0.336 -0.232,0.312 -0.368,0.432 -0.512,0.432 -0.184,0 -0.264,-0.176 -0.408,-0.832 l -0.152,-0.76 0.352,-0.648 c 0.192,-0.368 0.36,-0.536 0.504,-0.536 0.064,0 0.104,0.032 0.136,0.104 0.072,0.16 0.128,0.2 0.272,0.2 0.248,0 0.4,-0.168 0.4,-0.432 0,-0.28 -0.192,-0.488 -0.456,-0.488 -0.216,0 -0.456,0.112 -0.624,0.296 -0.16,0.176 -0.168,0.176 -0.44,0.68 l -0.232,0.416 -0.088,-0.44 c -0.136,-0.688 -0.312,-0.952 -0.64,-0.952 -0.176,0 -0.352,0.104 -0.552,0.328 -0.128,0.144 -0.24,0.296 -0.6,0.824 l 0.232,0.168 c 0.424,-0.608 0.512,-0.704 0.656,-0.704 0.056,0 0.136,0.048 0.168,0.12 0.072,0.128 0.072,0.128 0.232,0.92 l 0.096,0.464 -0.36,0.64 c -0.224,0.416 -0.416,0.632 -0.552,0.632 -0.064,0 -0.104,-0.056 -0.12,-0.16 -0.04,-0.216 -0.144,-0.312 -0.344,-0.312 -0.24,0 -0.408,0.192 -0.408,0.464 0,0.304 0.208,0.496 0.528,0.496 0.384,0 0.76,-0.32 1.104,-0.928 z"
           style="font-style:italic"
           id="path1201" />
      </g>
      <g
         aria-label="PDF"
         transform="rotate(-90,-12,-60)"
         id="text1114">
        <path
           d="m -18.423997,-62.568 h 0.904 c 0.72,0 1.096,-0.056 1.424,-0.208 0.56,-0.272 0.88,-0.784 0.88,-1.416 0,-0.608 -0.28,-1.072 -0.808,-1.336 -0.312,-0.16 -0.808,-0.248 -1.36,-0.248 h -2.8 v 0.376 h 0.144 c 0.456,0.008 0.608,0.032 0.672,0.112 0.048,0.072 0.048,0.088 0.048,0.496 v 3.808 c 0,0.408 0,0.424 -0.048,0.496 -0.064,0.08 -0.216,0.112 -0.672,0.112 h -0.144 V -60 h 2.688 v -0.376 h -0.208 c -0.456,0 -0.608,-0.032 -0.672,-0.112 -0.048,-0.072 -0.048,-0.088 -0.048,-0.496 z m 0,-0.376 v -2.048 c 0,-0.368 0.04,-0.408 0.488,-0.408 h 0.512 c 0.832,0 1.224,0.392 1.224,1.24 0,0.824 -0.408,1.216 -1.256,1.216 z"
           id="path1204" />
        <path
           d="m -14.92,-60 h 2.688 c 0.712,0 1.256,-0.112 1.68,-0.352 0.8079996,-0.456 1.2559996,-1.368 1.2559996,-2.568 0,-1.104 -0.4,-1.968 -1.1359996,-2.448 -0.44,-0.28 -1.032,-0.408 -1.944,-0.408 h -2.544 v 0.376 h 0.152 c 0.448,0.008 0.6,0.032 0.664,0.112 0.048,0.072 0.048,0.088 0.048,0.496 v 3.808 c 0,0.408 0,0.424 -0.048,0.496 -0.064,0.08 -0.216,0.104 -0.664,0.112 h -0.152 z m 2.216,-0.376 c -0.408,0 -0.456,-0.048 -0.456,-0.44 v -4.136 c 0,-0.392 0.056,-0.448 0.456,-0.448 h 0.416 c 1.368,0 1.936,0.744 1.936,2.512 0,1.792 -0.512,2.512 -1.808,2.512 z"
           id="path1206" />
        <path
           d="m -3.9360014,-65.776 h -4.76 v 0.376 h 0.144 c 0.456,0.008 0.608,0.032 0.672,0.112 0.048,0.072 0.048,0.088 0.048,0.496 v 3.808 c 0,0.408 0,0.424 -0.048,0.496 -0.064,0.08 -0.216,0.112 -0.672,0.112 h -0.144 V -60 h 2.744 v -0.376 h -0.264 c -0.456,0 -0.608,-0.032 -0.672,-0.112 -0.048,-0.072 -0.048,-0.096 -0.048,-0.496 V -62.8 h 0.16 c 0.824,-0.032 1.12,0.264 1.152,1.152 h 0.376 v -2.624 h -0.376 c -0.048,0.784 -0.36,1.088 -1.12,1.096 h -0.192 V -65 c -0.008,-0.336 0.072,-0.392 0.504,-0.4 h 0.368 c 1.312,-0.008 1.64,0.288 1.888,1.664 h 0.352 z"
           id="path1208" />
      </g>
    </g>
    <g
       aria-label="σ=1, μ=0"
       id="text1118"
       style="fill:#0000ff">
      <path
         d="m 85.352014,-15.442 c 0.09,0.006 0.18,0.012 0.228,0.012 0.258,0 0.468,-0.096 0.468,-0.216 0,-0.078 -0.03,-0.138 -0.072,-0.138 -0.012,0 -0.03,0 -0.048,0.006 -0.114,0.03 -0.192,0.042 -0.282,0.042 -0.144,0 -0.246,-0.018 -0.516,-0.072 -0.264,-0.06 -0.39,-0.078 -0.57,-0.078 -0.45,0 -0.744,0.114 -1.002,0.378 -0.282,0.288 -0.432,0.672 -0.432,1.11 0,0.828 0.576,1.488 1.296,1.488 0.714,0 1.296,-0.66 1.296,-1.476 0,-0.396 -0.108,-0.714 -0.366,-1.056 z m -0.798,-0.102 c 0.168,0 0.282,0.06 0.366,0.192 0.102,0.174 0.168,0.522 0.168,0.942 0,0.816 -0.228,1.242 -0.666,1.242 -0.426,0 -0.666,-0.432 -0.666,-1.206 0,-0.348 0.054,-0.612 0.168,-0.804 0.126,-0.222 0.378,-0.366 0.63,-0.366 z"
         style="fill:#0000ff"
         id="path1211" />
      <path
         d="m 86.438013,-13.672 h 3.024 v -0.48 h -3.024 z m 0,-1.212 h 3.024 v -0.48 h -3.024 z"
         style="fill:#0000ff"
         id="path1213" />
      <path
         d="m 91.700007,-17.224 c -0.204,0.246 -0.756,0.432 -1.308,0.444 v 0.258 h 0.528 c 0.348,0.006 0.384,0.042 0.372,0.378 v 2.406 c 0,0.306 0,0.318 -0.036,0.372 -0.048,0.06 -0.162,0.084 -0.498,0.084 h -0.39 V -13 h 2.376 v -0.282 h -0.33 c -0.336,0 -0.45,-0.024 -0.498,-0.084 -0.042,-0.054 -0.042,-0.06 -0.042,-0.372 v -2.478 c 0,-0.336 0.012,-0.618 0.042,-1.008 z"
         style="fill:#0000ff"
         id="path1215" />
      <path
         d="m 93.626006,-11.896 c 0.54,-0.372 0.786,-0.738 0.786,-1.158 0,-0.36 -0.198,-0.594 -0.492,-0.594 -0.222,0 -0.39,0.156 -0.39,0.36 0,0.216 0.162,0.354 0.414,0.354 0.03,0 0.072,0 0.09,-0.006 h 0.018 c 0.03,0 0.042,0.018 0.042,0.054 0,0.252 -0.204,0.534 -0.606,0.816 z"
         style="fill:#0000ff"
         id="path1217" />
      <path
         d="M 98.912004,-12.958 100.004,-13 v -0.258 h -0.149996 c -0.348,-0.012 -0.378,-0.048 -0.378,-0.438 v -2.1 l -1.128,0.066 v 0.258 h 0.306 c 0.228,0.006 0.258,0.042 0.258,0.3 v 0.738 c 0,0.342 -0.036,0.546 -0.126,0.738 -0.126,0.27 -0.366,0.42 -0.66,0.42 -0.186,0 -0.342,-0.066 -0.42,-0.186 -0.078,-0.114 -0.09,-0.174 -0.09,-0.504 v -1.83 l -1.05,0.066 v 0.258 h 0.228 c 0.228,0.006 0.258,0.042 0.258,0.3 v 1.296 0.15 c 0,0.024 0.006,0.138 0.018,0.312 0.006,0.096 0.012,0.192 0.012,0.27 0,0.114 -0.006,0.222 -0.018,0.318 -0.048,0.366 -0.048,0.366 -0.048,0.57 0,0.324 0.078,0.468 0.246,0.468 0.15,0 0.264,-0.18 0.264,-0.414 0,-0.072 -0.012,-0.168 -0.036,-0.258 l -0.072,-0.306 c -0.018,-0.072 -0.03,-0.156 -0.036,-0.24 0,-0.048 0,-0.048 -0.006,-0.072 0.168,0.114 0.36,0.168 0.6,0.168 0.396,0 0.672,-0.162 0.936,-0.546 z"
         style="fill:#0000ff"
         id="path1219" />
      <path
         d="m 100.41199,-13.672 h 3.024 v -0.48 h -3.024 z m 0,-1.212 h 3.024 v -0.48 h -3.024 z"
         style="fill:#0000ff"
         id="path1221" />
      <path
         d="m 105.44599,-17.224 c -0.84,0 -1.452,0.912 -1.452,2.172 0,1.236 0.594,2.142 1.404,2.142 0.84,0 1.428,-0.876 1.428,-2.124 0,-0.636 -0.132,-1.164 -0.384,-1.578 -0.234,-0.378 -0.618,-0.612 -0.996,-0.612 z m -0.042,0.258 c 0.198,0 0.39,0.132 0.534,0.372 0.162,0.282 0.216,0.624 0.216,1.446 0,0.846 -0.042,1.242 -0.162,1.506 -0.138,0.294 -0.354,0.474 -0.582,0.474 -0.204,0 -0.39,-0.132 -0.534,-0.372 -0.168,-0.282 -0.216,-0.654 -0.216,-1.638 0,-0.702 0.042,-1.05 0.162,-1.314 0.138,-0.3 0.354,-0.474 0.582,-0.474 z"
         style="fill:#0000ff"
         id="path1223" />
    </g>
    <g
       aria-label="σ=0.5, μ=0"
       id="text1120"
       style="fill:#008000">
      <path
         d="m 62.850015,-27.442 c 0.09,0.006 0.18,0.012 0.228,0.012 0.258,0 0.468,-0.096 0.468,-0.216 0,-0.078 -0.03,-0.138 -0.072,-0.138 -0.012,0 -0.03,0 -0.048,0.006 -0.114,0.03 -0.192,0.042 -0.282,0.042 -0.144,0 -0.246,-0.018 -0.516,-0.072 -0.264,-0.06 -0.39,-0.078 -0.57,-0.078 -0.45,0 -0.744,0.114 -1.002,0.378 -0.282,0.288 -0.432,0.672 -0.432,1.11 0,0.828 0.576,1.488 1.296,1.488 0.714,0 1.296,-0.66 1.296,-1.476 0,-0.396 -0.108,-0.714 -0.366,-1.056 z m -0.798,-0.102 c 0.168,0 0.282,0.06 0.366,0.192 0.102,0.174 0.168,0.522 0.168,0.942 0,0.816 -0.228,1.242 -0.666,1.242 -0.426,0 -0.666,-0.432 -0.666,-1.206 0,-0.348 0.054,-0.612 0.168,-0.804 0.126,-0.222 0.378,-0.366 0.63,-0.366 z"
         style="fill:#008000"
         id="path1226" />
      <path
         d="m 63.936014,-25.672 h 3.024 v -0.48 h -3.024 z m 0,-1.212 h 3.024 v -0.48 h -3.024 z"
         style="fill:#008000"
         id="path1228" />
      <path
         d="m 68.970008,-29.224 c -0.84,0 -1.452,0.912 -1.452,2.172 0,1.236 0.594,2.142 1.404,2.142 0.84,0 1.428,-0.876 1.428,-2.124 0,-0.636 -0.132,-1.164 -0.384,-1.578 -0.234,-0.378 -0.618,-0.612 -0.996,-0.612 z m -0.042,0.258 c 0.198,0 0.39,0.132 0.534,0.372 0.162,0.282 0.216,0.624 0.216,1.446 0,0.846 -0.042,1.242 -0.162,1.506 -0.138,0.294 -0.354,0.474 -0.582,0.474 -0.204,0 -0.39,-0.132 -0.534,-0.372 -0.168,-0.282 -0.216,-0.654 -0.216,-1.638 0,-0.702 0.042,-1.05 0.162,-1.314 0.138,-0.3 0.354,-0.474 0.582,-0.474 z"
         style="fill:#008000"
         id="path1230" />
      <path
         d="m 71.424007,-25.666 c -0.21,0 -0.378,0.168 -0.378,0.372 0,0.21 0.168,0.378 0.372,0.378 0.21,0 0.378,-0.168 0.378,-0.378 0,-0.204 -0.168,-0.372 -0.372,-0.372 z"
         style="fill:#008000"
         id="path1232" />
      <path
         d="m 73.254006,-28.546 c 0.324,0.078 0.486,0.102 0.726,0.102 0.51,0 0.882,-0.174 1.08,-0.51 0.066,-0.108 0.09,-0.168 0.09,-0.216 0,-0.036 -0.012,-0.054 -0.048,-0.054 -0.018,0 -0.042,0.006 -0.078,0.024 -0.294,0.126 -0.45,0.156 -0.798,0.156 -0.384,0 -0.624,-0.036 -1.236,-0.18 -0.024,0.504 -0.078,1.146 -0.162,1.89 -0.126,0.132 -0.168,0.21 -0.168,0.306 0,0.126 0.078,0.204 0.192,0.204 0.156,0 0.246,-0.126 0.27,-0.366 0.21,-0.15 0.408,-0.216 0.648,-0.216 0.54,0 0.858,0.408 0.858,1.098 0,0.402 -0.102,0.744 -0.282,0.93 -0.12,0.126 -0.366,0.21 -0.612,0.21 -0.36,0 -0.732,-0.186 -0.732,-0.372 0,-0.042 0.036,-0.09 0.108,-0.132 0.186,-0.114 0.24,-0.192 0.24,-0.354 0,-0.21 -0.162,-0.372 -0.378,-0.372 -0.24,0 -0.432,0.222 -0.432,0.504 0,0.3 0.174,0.6 0.444,0.786 0.204,0.132 0.444,0.198 0.762,0.198 0.942,0 1.536,-0.552 1.536,-1.434 0,-0.816 -0.54,-1.362 -1.356,-1.362 -0.258,0 -0.444,0.042 -0.774,0.18 z"
         style="fill:#008000"
         id="path1234" />
      <path
         d="m 76.128005,-23.896 c 0.54,-0.372 0.786,-0.738 0.786,-1.158 0,-0.36 -0.198,-0.594 -0.492,-0.594 -0.222,0 -0.39,0.156 -0.39,0.36 0,0.216 0.162,0.354 0.414,0.354 0.03,0 0.072,0 0.09,-0.006 h 0.018 c 0.03,0 0.042,0.018 0.042,0.054 0,0.252 -0.204,0.534 -0.606,0.816 z"
         style="fill:#008000"
         id="path1236" />
      <path
         d="m 81.414003,-24.958 1.092,-0.042 v -0.258 h -0.15 c -0.348,-0.012 -0.378,-0.048 -0.378,-0.438 v -2.1 l -1.128,0.066 v 0.258 h 0.306 c 0.228,0.006 0.258,0.042 0.258,0.3 v 0.738 c 0,0.342 -0.036,0.546 -0.126,0.738 -0.126,0.27 -0.366,0.42 -0.66,0.42 -0.186,0 -0.342,-0.066 -0.42,-0.186 -0.078,-0.114 -0.09,-0.174 -0.09,-0.504 v -1.83 l -1.05,0.066 v 0.258 h 0.228 c 0.228,0.006 0.258,0.042 0.258,0.3 v 1.296 0.15 c 0,0.024 0.006,0.138 0.018,0.312 0.006,0.096 0.012,0.192 0.012,0.27 0,0.114 -0.006,0.222 -0.018,0.318 -0.048,0.366 -0.048,0.366 -0.048,0.57 0,0.324 0.078,0.468 0.246,0.468 0.15,0 0.264,-0.18 0.264,-0.414 0,-0.072 -0.012,-0.168 -0.036,-0.258 l -0.072,-0.306 c -0.018,-0.072 -0.03,-0.156 -0.036,-0.24 0,-0.048 0,-0.048 -0.006,-0.072 0.168,0.114 0.36,0.168 0.6,0.168 0.396,0 0.672,-0.162 0.936,-0.546 z"
         style="fill:#008000"
         id="path1238" />
      <path
         d="m 82.913992,-25.672 h 3.024 v -0.48 h -3.024 z m 0,-1.212 h 3.024 v -0.48 h -3.024 z"
         style="fill:#008000"
         id="path1240" />
      <path
         d="m 87.947986,-29.224 c -0.84,0 -1.452,0.912 -1.452,2.172 0,1.236 0.594,2.142 1.404,2.142 0.84,0 1.428,-0.876 1.428,-2.124 0,-0.636 -0.132,-1.164 -0.384,-1.578 -0.234,-0.378 -0.618,-0.612 -0.996,-0.612 z m -0.042,0.258 c 0.198,0 0.39,0.132 0.534,0.372 0.162,0.282 0.216,0.624 0.216,1.446 0,0.846 -0.042,1.242 -0.162,1.506 -0.138,0.294 -0.354,0.474 -0.582,0.474 -0.204,0 -0.39,-0.132 -0.534,-0.372 -0.168,-0.282 -0.216,-0.654 -0.216,-1.638 0,-0.702 0.042,-1.05 0.162,-1.314 0.138,-0.3 0.354,-0.474 0.582,-0.474 z"
         style="fill:#008000"
         id="path1242" />
    </g>
    <g
       aria-label="σ=0.25, μ=0"
       id="text1122"
       style="fill:#ff0000">
      <path
         d="m 26.182016,-102.442 c 0.09,0.006 0.18,0.012 0.228,0.012 0.258,0 0.468,-0.096 0.468,-0.216 0,-0.078 -0.03,-0.138 -0.072,-0.138 -0.012,0 -0.03,0 -0.048,0.006 -0.114,0.03 -0.192,0.042 -0.282,0.042 -0.144,0 -0.246,-0.018 -0.516,-0.072 -0.264,-0.06 -0.39,-0.078 -0.57,-0.078 -0.45,0 -0.744,0.114 -1.002,0.378 -0.282,0.288 -0.432,0.672 -0.432,1.11 0,0.828 0.576,1.488 1.296,1.488 0.714,0 1.296,-0.66 1.296,-1.476 0,-0.396 -0.108,-0.714 -0.366,-1.056 z m -0.798,-0.102 c 0.168,0 0.282,0.06 0.366,0.192 0.102,0.174 0.168,0.522 0.168,0.942 0,0.816 -0.228,1.242 -0.666,1.242 -0.426,0 -0.666,-0.432 -0.666,-1.206 0,-0.348 0.054,-0.612 0.168,-0.804 0.126,-0.222 0.378,-0.366 0.63,-0.366 z"
         style="fill:#ff0000"
         id="path1245" />
      <path
         d="m 27.268015,-100.672 h 3.024 v -0.48 h -3.024 z m 0,-1.212 h 3.024 v -0.48 h -3.024 z"
         style="fill:#ff0000"
         id="path1247" />
      <path
         d="m 32.302009,-104.224 c -0.84,0 -1.452,0.912 -1.452,2.172 0,1.236 0.594,2.142 1.404,2.142 0.84,0 1.428,-0.876 1.428,-2.124 0,-0.636 -0.132,-1.164 -0.384,-1.578 -0.234,-0.378 -0.618,-0.612 -0.996,-0.612 z m -0.042,0.258 c 0.198,0 0.39,0.132 0.534,0.372 0.162,0.282 0.216,0.624 0.216,1.446 0,0.846 -0.042,1.242 -0.162,1.506 -0.138,0.294 -0.354,0.474 -0.582,0.474 -0.204,0 -0.39,-0.132 -0.534,-0.372 -0.168,-0.282 -0.216,-0.654 -0.216,-1.638 0,-0.702 0.042,-1.05 0.162,-1.314 0.138,-0.3 0.354,-0.474 0.582,-0.474 z"
         style="fill:#ff0000"
         id="path1249" />
      <path
         d="m 34.756008,-100.666 c -0.21,0 -0.378,0.168 -0.378,0.372 0,0.21 0.168,0.378 0.372,0.378 0.21,0 0.378,-0.168 0.378,-0.378 0,-0.204 -0.168,-0.372 -0.372,-0.372 z"
         style="fill:#ff0000"
         id="path1251" />
      <path
         d="m 38.632007,-101.296 h -0.264 l -0.06,0.306 c -0.078,0.39 -0.126,0.426 -0.498,0.426 h -1.344 c 0.414,-0.432 0.552,-0.558 0.936,-0.858 0.546,-0.42 0.78,-0.63 0.918,-0.81 0.192,-0.264 0.288,-0.528 0.288,-0.822 0,-0.684 -0.564,-1.17 -1.35,-1.17 -0.762,0 -1.344,0.486 -1.344,1.128 0,0.378 0.192,0.636 0.474,0.636 0.222,0 0.372,-0.15 0.372,-0.366 0,-0.15 -0.084,-0.288 -0.21,-0.342 -0.222,-0.09 -0.234,-0.102 -0.234,-0.18 0,-0.09 0.06,-0.228 0.144,-0.33 0.15,-0.186 0.396,-0.288 0.678,-0.288 0.498,0 0.792,0.306 0.792,0.81 0,0.444 -0.21,0.846 -0.708,1.374 -0.444,0.468 -0.72,0.762 -0.822,0.876 -0.216,0.252 -0.324,0.39 -0.588,0.738 V -100 h 2.706 z"
         style="fill:#ff0000"
         id="path1253" />
      <path
         d="m 39.922005,-103.546 c 0.324,0.078 0.486,0.102 0.726,0.102 0.51,0 0.882,-0.174 1.08,-0.51 0.066,-0.108 0.09,-0.168 0.09,-0.216 0,-0.036 -0.012,-0.054 -0.048,-0.054 -0.018,0 -0.042,0.006 -0.078,0.024 -0.294,0.126 -0.45,0.156 -0.798,0.156 -0.384,0 -0.624,-0.036 -1.236,-0.18 -0.024,0.504 -0.078,1.146 -0.162,1.89 -0.126,0.132 -0.168,0.21 -0.168,0.306 0,0.126 0.078,0.204 0.192,0.204 0.156,0 0.246,-0.126 0.27,-0.366 0.21,-0.15 0.408,-0.216 0.648,-0.216 0.54,0 0.858,0.408 0.858,1.098 0,0.402 -0.102,0.744 -0.282,0.93 -0.12,0.126 -0.366,0.21 -0.612,0.21 -0.36,0 -0.732,-0.186 -0.732,-0.372 0,-0.042 0.036,-0.09 0.108,-0.132 0.186,-0.114 0.24,-0.192 0.24,-0.354 0,-0.21 -0.162,-0.372 -0.378,-0.372 -0.24,0 -0.432,0.222 -0.432,0.504 0,0.3 0.174,0.6 0.444,0.786 0.204,0.132 0.444,0.198 0.762,0.198 0.942,0 1.536,-0.552 1.536,-1.434 0,-0.816 -0.54,-1.362 -1.356,-1.362 -0.258,0 -0.444,0.042 -0.774,0.18 z"
         style="fill:#ff0000"
         id="path1255" />
      <path
         d="m 42.796004,-98.896 c 0.54,-0.372 0.786,-0.738 0.786,-1.158 0,-0.36 -0.198,-0.594 -0.492,-0.594 -0.222,0 -0.39,0.156 -0.39,0.36 0,0.216 0.162,0.354 0.414,0.354 0.03,0 0.072,0 0.09,-0.006 h 0.018 c 0.03,0 0.042,0.018 0.042,0.054 0,0.252 -0.204,0.534 -0.606,0.816 z"
         style="fill:#ff0000"
         id="path1257" />
      <path
         d="m 48.082003,-99.958 1.092,-0.042 v -0.258 h -0.15 c -0.348,-0.012 -0.378,-0.048 -0.378,-0.438 v -2.1 l -1.128,0.066 v 0.258 h 0.306 c 0.228,0.006 0.258,0.042 0.258,0.3 v 0.738 c 0,0.342 -0.036,0.546 -0.126,0.738 -0.126,0.27 -0.366,0.42 -0.66,0.42 -0.186,0 -0.342,-0.066 -0.42,-0.186 -0.078,-0.114 -0.09,-0.174 -0.09,-0.504 v -1.83 l -1.05,0.066 v 0.258 h 0.228 c 0.228,0.006 0.258,0.042 0.258,0.3 v 1.296 0.15 c 0,0.024 0.006,0.138 0.018,0.312 0.006,0.096 0.012,0.192 0.012,0.27 0,0.114 -0.006,0.222 -0.018,0.318 -0.048,0.366 -0.048,0.366 -0.048,0.57 0,0.324 0.078,0.468 0.246,0.468 0.15,0 0.264,-0.18 0.264,-0.414 0,-0.072 -0.012,-0.168 -0.036,-0.258 l -0.072,-0.306 c -0.018,-0.072 -0.03,-0.156 -0.036,-0.24 0,-0.048 0,-0.048 -0.006,-0.072 0.168,0.114 0.36,0.168 0.6,0.168 0.396,0 0.672,-0.162 0.936,-0.546 z"
         style="fill:#ff0000"
         id="path1259" />
      <path
         d="m 49.581991,-100.672 h 3.024 v -0.48 h -3.024 z m 0,-1.212 h 3.024 v -0.48 h -3.024 z"
         style="fill:#ff0000"
         id="path1261" />
      <path
         d="m 54.615985,-104.224 c -0.84,0 -1.452,0.912 -1.452,2.172 0,1.236 0.594,2.142 1.404,2.142 0.84,0 1.428,-0.876 1.428,-2.124 0,-0.636 -0.132,-1.164 -0.384,-1.578 -0.234,-0.378 -0.618,-0.612 -0.996,-0.612 z m -0.042,0.258 c 0.198,0 0.39,0.132 0.534,0.372 0.162,0.282 0.216,0.624 0.216,1.446 0,0.846 -0.042,1.242 -0.162,1.506 -0.138,0.294 -0.354,0.474 -0.582,0.474 -0.204,0 -0.39,-0.132 -0.534,-0.372 -0.168,-0.282 -0.216,-0.654 -0.216,-1.638 0,-0.702 0.042,-1.05 0.162,-1.314 0.138,-0.3 0.354,-0.474 0.582,-0.474 z"
         style="fill:#ff0000"
         id="path1263" />
    </g>
  </g>
  <g
     fill="none"
     id="g1134"
     transform="translate(-0.224)">
    <path
       d="M 0,0 H 130 M 0,-120 V 0"
       stroke="#000000"
       stroke-width="0.75"
       id="path1126" />
    <path
       d="m 0.4,0 q 3,-13 6,-28 3,-10 5.6,-11 3,-1 6,0 3,2 6,4 3,2 6,5 3,2 6,4 3,2 6,3 3,2 6,3 3,2 6,3 3,1 6,2 3,1 6,2 3,1 6,2 3,1 6,1.2 3,0.6 6,1.2 3,0.5 6,1 3,0.4 6,0.8 3,0.4 4,0.8 10,0.3 10,0.6 10,0.8 10,1"
       stroke="#0000ff"
       id="path1128" />
    <path
       d="m 0.4,0 q 3,0.17 6,-0.36 3,-0.6 5.6,-9.44 3,-9.2 6,-21.2 3,-11 6,-17 3,-6 6,-6 3,-1 6,2 3,3 6,7 3,4 6,8 3,4 6,8 3,3 6,6 3,3 6,6 3,2 6,4 3,2 6,3 3,1.4 6,2.5 3,1 6,1.8 3,0.8 6,1.4 3,0.6 4,1.1 10,0.4 10,0.7 10,0.9 10,1.1"
       stroke="#008000"
       id="path1130" />
    <path
       d="m 0,0 h 8 q 2,0 5,0 2,0.17 4,-0.75 2,-0.55 5,-8.45 2,-8.8 4,-26.8 3,-20 5,-37 2,-18 5,-24 2,-3 4,2 2,6 5,18 2,11 4,23 3,11 5,19 2,9 5,15 2,5 4,9 2,3 5,4.9 2,1.9 4,2.9 3,1.1 5,1.6 2,0.5 5,0.8 2,0.27 4,0.4 2,0.14 5,0.2 2,0.07 4,0.1 3,0.038 5,0.1 h 20"
       stroke="#ff0000"
       id="path1132" />
  </g>
</svg>
