<?xml version="1.0" encoding="UTF-8" standalone="no"?>
<svg
   xmlns:dc="http://purl.org/dc/elements/1.1/"
   xmlns:cc="http://creativecommons.org/ns#"
   xmlns:rdf="http://www.w3.org/1999/02/22-rdf-syntax-ns#"
   xmlns:svg="http://www.w3.org/2000/svg"
   xmlns="http://www.w3.org/2000/svg"
   xmlns:sodipodi="http://sodipodi.sourceforge.net/DTD/sodipodi-0.dtd"
   xmlns:inkscape="http://www.inkscape.org/namespaces/inkscape"
   width="9.5in"
   height="4.125in"
   viewBox="0 0 241.3 104.775"
   version="1.1"
   id="svg8"
   sodipodi:docname="pdf.svg"
   inkscape:version="1.0.2 (e86c870879, 2021-01-15)">
  <defs
     id="defs2">
    <g
       id="g5306">
      <symbol
         overflow="visible"
         id="symbol1778">
        <path
           style="stroke:none"
           d=""
           id="path1194" />
      </symbol>
      <symbol
         overflow="visible"
         id="symbol9845">
        <path
           style="stroke:none"
           d="m 5.359375,-5.9375 c -0.140625,0.140625 -0.46875,0.421875 -0.46875,0.59375 0,0.09375 0.09375,0.203125 0.1875,0.203125 0.09375,0 0.140625,-0.078125 0.203125,-0.140625 C 5.390625,-5.421875 5.625,-5.703125 6.0625,-5.921875 6.125,-5.96875 6.234375,-6.015625 6.234375,-6.125 6.234375,-6.234375 6.15625,-6.28125 6.09375,-6.328125 5.875,-6.484375 5.765625,-6.65625 5.6875,-6.890625 5.65625,-6.984375 5.625,-7.125 5.484375,-7.125 c -0.140625,0 -0.203125,0.140625 -0.203125,0.21875 0,0.046875 0.078125,0.359375 0.234375,0.578125 H 2.15625 c -0.15625,0 -0.34375,0 -0.34375,0.203125 0,0.1875 0.1875,0.1875 0.34375,0.1875 z m 0,0"
           id="path2733" />
      </symbol>
      <symbol
         overflow="visible"
         id="symbol507">
        <path
           style="stroke:none"
           d="M 3.328125,-3.015625 C 3.390625,-3.265625 3.625,-4.1875 4.3125,-4.1875 c 0.046875,0 0.296875,0 0.5,0.125 C 4.53125,-4 4.34375,-3.765625 4.34375,-3.515625 c 0,0.15625 0.109375,0.34375 0.375,0.34375 0.21875,0 0.53125,-0.171875 0.53125,-0.578125 0,-0.515625 -0.578125,-0.65625 -0.921875,-0.65625 -0.578125,0 -0.921875,0.53125 -1.046875,0.75 -0.25,-0.65625 -0.78125,-0.75 -1.078125,-0.75 -1.03125,0 -1.609375,1.28125 -1.609375,1.53125 0,0.109375 0.109375,0.109375 0.125,0.109375 0.078125,0 0.109375,-0.03125 0.125,-0.109375 0.34375,-1.0625 1,-1.3125 1.34375,-1.3125 0.1875,0 0.53125,0.09375 0.53125,0.671875 0,0.3125 -0.171875,0.96875 -0.53125,2.375 -0.15625,0.609375 -0.515625,1.03125 -0.953125,1.03125 -0.0625,0 -0.28125,0 -0.5,-0.125 0.25,-0.0625 0.46875,-0.265625 0.46875,-0.546875 0,-0.265625 -0.21875,-0.34375 -0.359375,-0.34375 -0.3125,0 -0.546875,0.25 -0.546875,0.578125 0,0.453125 0.484375,0.65625 0.921875,0.65625 0.671875,0 1.03125,-0.703125 1.046875,-0.75 0.125,0.359375 0.484375,0.75 1.078125,0.75 1.03125,0 1.59375,-1.28125 1.59375,-1.53125 0,-0.109375 -0.078125,-0.109375 -0.109375,-0.109375 -0.09375,0 -0.109375,0.046875 -0.140625,0.109375 -0.328125,1.078125 -1,1.3125 -1.3125,1.3125 -0.390625,0 -0.546875,-0.3125 -0.546875,-0.65625 0,-0.21875 0.046875,-0.4375 0.15625,-0.875 z m 0,0"
           id="path3387" />
      </symbol>
    </g>
    <g
       id="g7776">
      <symbol
         overflow="visible"
         id="symbol8309">
        <path
           style="stroke:none;"
           d=""
           id="path1129" />
      </symbol>
      <symbol
         overflow="visible"
         id="symbol9295">
        <path
           style="stroke:none;"
           d="M 4.46875 -2 C 4.46875 -3.1875 3.65625 -4.1875 2.578125 -4.1875 C 2.109375 -4.1875 1.671875 -4.03125 1.3125 -3.671875 L 1.3125 -5.625 C 1.515625 -5.5625 1.84375 -5.5 2.15625 -5.5 C 3.390625 -5.5 4.09375 -6.40625 4.09375 -6.53125 C 4.09375 -6.59375 4.0625 -6.640625 3.984375 -6.640625 C 3.984375 -6.640625 3.953125 -6.640625 3.90625 -6.609375 C 3.703125 -6.515625 3.21875 -6.3125 2.546875 -6.3125 C 2.15625 -6.3125 1.6875 -6.390625 1.21875 -6.59375 C 1.140625 -6.625 1.125 -6.625 1.109375 -6.625 C 1 -6.625 1 -6.546875 1 -6.390625 L 1 -3.4375 C 1 -3.265625 1 -3.1875 1.140625 -3.1875 C 1.21875 -3.1875 1.234375 -3.203125 1.28125 -3.265625 C 1.390625 -3.421875 1.75 -3.96875 2.5625 -3.96875 C 3.078125 -3.96875 3.328125 -3.515625 3.40625 -3.328125 C 3.5625 -2.953125 3.59375 -2.578125 3.59375 -2.078125 C 3.59375 -1.71875 3.59375 -1.125 3.34375 -0.703125 C 3.109375 -0.3125 2.734375 -0.0625 2.28125 -0.0625 C 1.5625 -0.0625 0.984375 -0.59375 0.8125 -1.171875 C 0.84375 -1.171875 0.875 -1.15625 0.984375 -1.15625 C 1.3125 -1.15625 1.484375 -1.40625 1.484375 -1.640625 C 1.484375 -1.890625 1.3125 -2.140625 0.984375 -2.140625 C 0.84375 -2.140625 0.5 -2.0625 0.5 -1.609375 C 0.5 -0.75 1.1875 0.21875 2.296875 0.21875 C 3.453125 0.21875 4.46875 -0.734375 4.46875 -2 Z M 4.46875 -2 "
           id="path5894" />
      </symbol>
      <symbol
         overflow="visible"
         id="symbol5036">
        <path
           style="stroke:none;"
           d="M 4.578125 -3.1875 C 4.578125 -3.984375 4.53125 -4.78125 4.1875 -5.515625 C 3.734375 -6.484375 2.90625 -6.640625 2.5 -6.640625 C 1.890625 -6.640625 1.171875 -6.375 0.75 -5.453125 C 0.4375 -4.765625 0.390625 -3.984375 0.390625 -3.1875 C 0.390625 -2.4375 0.421875 -1.546875 0.84375 -0.78125 C 1.265625 0.015625 2 0.21875 2.484375 0.21875 C 3.015625 0.21875 3.78125 0.015625 4.21875 -0.9375 C 4.53125 -1.625 4.578125 -2.40625 4.578125 -3.1875 Z M 2.484375 0 C 2.09375 0 1.5 -0.25 1.328125 -1.203125 C 1.21875 -1.796875 1.21875 -2.71875 1.21875 -3.3125 C 1.21875 -3.953125 1.21875 -4.609375 1.296875 -5.140625 C 1.484375 -6.328125 2.234375 -6.421875 2.484375 -6.421875 C 2.8125 -6.421875 3.46875 -6.234375 3.65625 -5.25 C 3.765625 -4.6875 3.765625 -3.9375 3.765625 -3.3125 C 3.765625 -2.5625 3.765625 -1.890625 3.65625 -1.25 C 3.5 -0.296875 2.9375 0 2.484375 0 Z M 2.484375 0 "
           id="path5148" />
      </symbol>
      <symbol
         overflow="visible"
         id="symbol533">
        <path
           style="stroke:none;"
           d="M 6.828125 -7.09375 C 6.890625 -7.1875 6.90625 -7.21875 6.90625 -7.28125 C 6.90625 -7.390625 6.8125 -7.484375 6.703125 -7.484375 C 6.609375 -7.484375 6.5625 -7.40625 6.5 -7.34375 C 6 -6.65625 5.328125 -6.390625 4.609375 -6.390625 C 3.90625 -6.390625 3.296875 -6.640625 2.734375 -7.15625 C 2.546875 -7.328125 2.34375 -7.484375 2.03125 -7.484375 C 1.265625 -7.484375 0.5625 -6.640625 0.5625 -5.46875 C 0.5625 -4.265625 1.28125 -3.453125 2.03125 -3.453125 C 2.75 -3.453125 3.3125 -4.34375 3.3125 -5.46875 C 3.3125 -5.609375 3.3125 -6.078125 3.109375 -6.59375 C 3.765625 -6.21875 4.25 -6.171875 4.609375 -6.171875 C 5.375 -6.171875 5.875 -6.484375 5.9375 -6.515625 L 5.953125 -6.515625 L 1.46875 0.15625 C 1.390625 0.296875 1.390625 0.34375 1.390625 0.359375 C 1.390625 0.46875 1.484375 0.5625 1.578125 0.5625 C 1.6875 0.5625 1.703125 0.515625 1.78125 0.40625 Z M 2.03125 -3.671875 C 1.828125 -3.671875 1.171875 -3.8125 1.171875 -5.46875 C 1.171875 -7.125 1.828125 -7.25 2.03125 -7.25 C 2.5625 -7.25 3.078125 -6.515625 3.078125 -5.46875 C 3.078125 -4.390625 2.546875 -3.671875 2.03125 -3.671875 Z M 6.453125 0.34375 C 6.25 0.34375 5.59375 0.203125 5.59375 -1.453125 C 5.59375 -3.109375 6.234375 -3.234375 6.453125 -3.234375 C 6.984375 -3.234375 7.484375 -2.5 7.484375 -1.453125 C 7.484375 -0.375 6.96875 0.34375 6.453125 0.34375 Z M 7.734375 -1.453125 C 7.734375 -2.59375 7.140625 -3.453125 6.4375 -3.453125 C 5.6875 -3.453125 4.96875 -2.625 4.96875 -1.453125 C 4.96875 -0.25 5.6875 0.5625 6.4375 0.5625 C 7.171875 0.5625 7.734375 -0.328125 7.734375 -1.453125 Z M 7.734375 -1.453125 "
           id="path6011" />
      </symbol>
    </g>
  </defs>
  <sodipodi:namedview
     id="base"
     pagecolor="#ffffff"
     bordercolor="#666666"
     borderopacity="1.0"
     inkscape:pageopacity="0.0"
     inkscape:pageshadow="2"
     inkscape:zoom="1.2325395"
     inkscape:cx="428.42112"
     inkscape:cy="226.10206"
     inkscape:document-units="mm"
     inkscape:current-layer="layer1"
     inkscape:document-rotation="0"
     showgrid="false"
     inkscape:window-width="1920"
     inkscape:window-height="1009"
     inkscape:window-x="0"
     inkscape:window-y="34"
     inkscape:window-maximized="1"
     units="in"
     inkscape:object-nodes="false" />
  <metadata
     id="metadata5">
    <rdf:RDF>
      <cc:Work
         rdf:about="">
        <dc:format>image/svg+xml</dc:format>
        <dc:type
           rdf:resource="http://purl.org/dc/dcmitype/StillImage" />
        <dc:title />
      </cc:Work>
    </rdf:RDF>
  </metadata>
  <g
     inkscape:label="Layer 1"
     inkscape:groupmode="layer"
     id="layer1">
    <path
       style="fill:none;stroke:#000000;stroke-width:0.565;stroke-linecap:butt;stroke-linejoin:miter;stroke-miterlimit:4;stroke-dasharray:none;stroke-opacity:1"
       d="M 2.0675787,72.258692 H 80.644154 C 70.433007,68.527607 59.022817,68.276397 49.339047,63.245029 46.631,62.005862 41.154124,60.552061 37.457265,58.139593 32.149796,55.225818 31.857563,53.702433 29.475531,50.353276 21.771233,40.928735 18.243027,35.930584 13.764575,46.368936 11.900776,51.968032 11.27794,55.06704 10.827883,56.819812 9.7768039,60.9133 9.9817699,60.321061 8.9668669,63.96151 7.9412637,67.640337 3.9581697,72.065869 2.0675787,72.258692 Z"
       id="path953"
       sodipodi:nodetypes="ccccccssc" />
    <path
       style="fill:none;stroke:#000000;stroke-width:0.565;stroke-linecap:butt;stroke-linejoin:miter;stroke-miterlimit:4;stroke-dasharray:none;stroke-opacity:1"
       d="m 162.90777,72.258692 h 78.57657 c -10.21115,-3.731085 -21.62134,-3.982295 -31.30511,-9.013663 -2.70805,-1.239167 -8.18492,-2.692968 -11.88178,-5.105436 -5.30747,-2.913775 -5.5997,-4.43716 -7.98173,-7.786317 -7.7043,-9.424541 -11.23251,-14.422692 -15.71095,-3.98434 -1.8638,5.599096 -2.48664,8.698104 -2.93669,10.450876 -1.05108,4.093488 -0.84612,3.501249 -1.86102,7.141698 -1.0256,3.678827 -5.0087,8.104359 -6.89929,8.297182 z"
       id="path957"
       sodipodi:nodetypes="ccccccssc" />
    <path
       style="fill:none;stroke:#000000;stroke-width:0.565;stroke-linecap:butt;stroke-linejoin:miter;stroke-miterlimit:4;stroke-dasharray:none;stroke-opacity:1"
       d="m 82.852943,72.258692 h 78.576577 c -10.21115,-3.731085 -21.62134,-3.982295 -31.30511,-9.013663 -2.70805,-1.239167 -8.18492,-2.692968 -11.88178,-5.105436 -5.30747,-2.913775 -5.5997,-4.43716 -7.98173,-7.786317 -7.7043,-9.424541 -11.232511,-14.422692 -15.71096,-3.98434 -1.8638,5.599096 -2.48664,8.698104 -2.93669,10.450876 -1.05108,4.093488 -0.84612,3.501249 -1.86102,7.141698 -1.0256,3.678827 -5.0087,8.104359 -6.899287,8.297182 z"
       id="path955"
       sodipodi:nodetypes="ccccccssc" />
    <path
       style="fill:#00cdbf;fill-opacity:1;stroke:#00cdbf;stroke-width:0.124857;stroke-linecap:butt;stroke-linejoin:miter;stroke-miterlimit:4;stroke-dasharray:none;stroke-opacity:1"
       d="m 188.69347,76.40918 h 5.68047 l -2.77677,-3.929008 z"
       id="path963"
       sodipodi:nodetypes="cccc" />
    <path
       style="fill:none;stroke:#000000;stroke-width:0.264583px;stroke-linecap:butt;stroke-linejoin:miter;stroke-opacity:0.636804"
       d="m 184.11089,76.460656 15.10949,0.149906"
       id="path965"
       sodipodi:nodetypes="cc" />
    <path
       style="fill:none;stroke:#000000;stroke-width:0.264583px;stroke-linecap:butt;stroke-linejoin:miter;stroke-opacity:1"
       d="m 184.1239,78.178294 1.59699,-1.596991"
       id="path975" />
    <path
       style="fill:none;stroke:#000000;stroke-width:0.264583px;stroke-linecap:butt;stroke-linejoin:miter;stroke-opacity:1"
       d="m 185.54034,78.178294 1.59699,-1.596991"
       id="path977" />
    <path
       style="fill:none;stroke:#000000;stroke-width:0.264583px;stroke-linecap:butt;stroke-linejoin:miter;stroke-opacity:1"
       d="m 187.0355,78.178294 1.59699,-1.596991"
       id="path979" />
    <path
       style="fill:none;stroke:#000000;stroke-width:0.264583px;stroke-linecap:butt;stroke-linejoin:miter;stroke-opacity:1"
       d="m 188.54133,78.178294 1.59699,-1.596991"
       id="path981" />
    <path
       style="fill:none;stroke:#000000;stroke-width:0.264583px;stroke-linecap:butt;stroke-linejoin:miter;stroke-opacity:1"
       d="m 190.04085,78.178294 1.59699,-1.596991"
       id="path983" />
    <path
       style="fill:none;stroke:#000000;stroke-width:0.264583px;stroke-linecap:butt;stroke-linejoin:miter;stroke-opacity:1"
       d="m 191.57058,78.233224 1.59699,-1.596991"
       id="path985" />
    <path
       style="fill:none;stroke:#000000;stroke-width:0.264583px;stroke-linecap:butt;stroke-linejoin:miter;stroke-opacity:1"
       d="m 193.07902,78.233224 1.59699,-1.596991"
       id="path987" />
    <path
       style="fill:none;stroke:#000000;stroke-width:0.264583px;stroke-linecap:butt;stroke-linejoin:miter;stroke-opacity:1"
       d="m 194.57171,78.233224 1.59699,-1.596991"
       id="path989" />
    <path
       style="fill:none;stroke:#000000;stroke-width:0.264583px;stroke-linecap:butt;stroke-linejoin:miter;stroke-opacity:1"
       d="m 196.02691,78.233224 1.59699,-1.596991"
       id="path991" />
    <text
       xml:space="preserve"
       style="font-style:normal;font-weight:normal;font-size:8.46667px;line-height:1.25;font-family:sans-serif;fill:#000000;fill-opacity:1;stroke:none;stroke-width:0.264583"
       x="11.643548"
       y="87.432686"
       id="text995"><tspan
         sodipodi:role="line"
         id="tspan993"
         x="11.643548"
         y="87.432686"
         style="font-size:8.46667px;stroke-width:0.264583">mode</tspan></text>
    <text
       xml:space="preserve"
       style="font-style:normal;font-weight:normal;font-size:8.46667px;line-height:1.25;font-family:sans-serif;fill:#000000;fill-opacity:1;stroke:none;stroke-width:0.264583"
       x="95.026756"
       y="87.432686"
       id="text999"><tspan
         sodipodi:role="line"
         id="tspan997"
         x="95.026756"
         y="87.432686"
         style="font-size:8.46667px;stroke-width:0.264583">median</tspan></text>
    <text
       xml:space="preserve"
       style="font-style:normal;font-weight:normal;font-size:8.46667px;line-height:1.25;font-family:sans-serif;fill:#000000;fill-opacity:1;stroke:none;stroke-width:0.264583"
       x="173.8571"
       y="86.341835"
       id="text1003"><tspan
         sodipodi:role="line"
         id="tspan1001"
         x="173.8571"
         y="86.341835"
         style="font-size:8.46667px;stroke-width:0.264583">mean</tspan></text>
    <path
       style="opacity:0.601174;fill:#000000;fill-opacity:0.35356981;fill-rule:evenodd;stroke:#000000;stroke-width:0.442637;stroke-linecap:butt;stroke-linejoin:miter;stroke-miterlimit:4;stroke-dasharray:none;stroke-opacity:0.636804"
       d="m 72.592877,213.18449 v -58.52024 l 2.306797,0.78544 c 1.268739,0.43199 3.584408,1.65571 5.145932,2.71938 6.474134,4.41001 25.766584,26.54375 35.089184,40.25694 10.24623,15.07182 25.63753,24.96185 57.1827,36.74406 7.02686,2.62455 14.85223,5.8035 17.38971,7.06431 14.0668,6.98951 28.09381,11.15356 64.59032,19.17425 22.10389,4.85768 39.57858,9.18041 40.3893,9.99113 0.16773,0.16774 -49.73479,0.30497 -110.89449,0.30497 H 72.592877 Z"
       id="path1005"
       transform="scale(0.26458333)" />
    <path
       style="opacity:0.601174;fill:#000000;fill-opacity:0.35357;fill-rule:evenodd;stroke:#000000;stroke-width:0.442637;stroke-linecap:butt;stroke-linejoin:miter;stroke-miterlimit:4;stroke-dasharray:none;stroke-opacity:0.636804"
       d="m 19.670249,266.95085 c 6.374067,-6.37406 12.209686,-15.30644 14.670058,-22.45494 1.097203,-3.18787 4.729902,-16.49612 8.072664,-29.57388 7.511593,-29.38733 10.924572,-40.15007 15.003277,-47.31247 3.549681,-6.2334 8.020782,-11.19306 11.038979,-12.24521 l 2.008299,-0.7001 v 58.52024 58.52024 H 42.68995 14.916375 Z"
       id="path1007"
       transform="scale(0.26458333)" />
    <path
       style="opacity:0.601174;fill:#000000;fill-opacity:0.2;fill-rule:evenodd;stroke:#000000;stroke-width:0.442637;stroke-linecap:butt;stroke-linejoin:miter;stroke-miterlimit:4;stroke-dasharray:none;stroke-opacity:0.636804"
       d="m 325.21377,266.79923 c 5.43561,-5.51163 10.54168,-12.80881 13.25363,-18.94099 1.00004,-2.26127 4.64379,-15.14847 8.09722,-28.63822 8.20582,-32.05346 10.66171,-40.08665 14.89918,-48.73501 5.65765,-11.54686 11.44248,-16.76658 17.28686,-15.59816 4.82348,0.96432 12.66886,7.57233 22.06608,18.58582 l 4.66472,5.46701 10e-4,27.7507 c 7.1e-4,15.26288 0.21175,36.13502 0.46879,46.38252 l 0.46735,18.63183 H 363.39746 320.3759 l 4.83784,-4.9055 z"
       id="path1009"
       transform="scale(0.26458333)" />
    <path
       style="opacity:0.601174;fill:#000000;fill-opacity:0.55000001;fill-rule:evenodd;stroke:#000000;stroke-width:0.442637;stroke-linecap:butt;stroke-linejoin:miter;stroke-miterlimit:4;stroke-dasharray:none;stroke-opacity:0.636804"
       d="m 407.97253,269.39793 c -0.22681,-1.26874 -0.32114,-21.47096 -0.20961,-44.89382 l 0.20278,-42.58703 4.38443,5.48224 c 2.41144,3.01524 6.35146,8.35419 8.75561,11.86434 5.67749,8.28936 11.54663,13.69949 21.04394,19.39815 11.30752,6.78485 16.67763,9.31362 33.60037,15.82234 8.39319,3.22814 18.45437,7.3366 22.35819,9.12991 14.08163,6.46873 29.0645,10.75233 64.59032,18.46635 19.07595,4.14212 36.34169,8.46577 37.18862,9.31269 0.17139,0.17139 -42.84651,0.31163 -95.59532,0.31163 h -95.90694 z"
       id="path1011"
       transform="scale(0.26458333)" />
    <path
       style="opacity:0.601174;fill:#000000;fill-opacity:0.34999999;fill-rule:evenodd;stroke:#000000;stroke-width:0.442637;stroke-linecap:butt;stroke-linejoin:miter;stroke-miterlimit:4;stroke-dasharray:none;stroke-opacity:0.636804"
       d="m 625.49738,269.0704 c 4.60161,-3.93881 11.10462,-12.47749 14.21659,-18.6669 1.98202,-3.94204 3.9907,-10.25954 7.1337,-22.43617 13.65333,-52.89586 16.52771,-60.91084 24.81697,-69.2001 5.48121,-5.48121 9.73967,-5.39338 17.54687,0.3619 6.52798,4.81226 23.7094,24.67738 33.21507,38.40319 8.13441,11.74577 11.72163,14.99622 25.50035,23.10646 8.71445,5.12937 15.52045,8.223 30.90078,14.04574 7.22205,2.73415 16.80413,6.63649 21.29351,8.67186 15.64631,7.09364 28.28254,10.66441 71.33327,20.15746 9.75952,2.15205 20.93862,4.85186 24.84243,5.99956 l 7.09784,2.08673 -140.4875,0.0523 -140.4875,0.0523 z"
       id="path1013"
       transform="scale(0.26458333)" />
    <path
       style="fill:none;stroke:#ff0000;stroke-width:0.365;stroke-linecap:butt;stroke-linejoin:miter;stroke-miterlimit:4;stroke-dasharray:none;stroke-opacity:1"
       d="m 18.972998,40.277758 -0.09488,37.743238"
       id="path959"
       sodipodi:nodetypes="cc" />
    <path
       style="fill:none;stroke:#008300;stroke-width:0.367299;stroke-linecap:butt;stroke-linejoin:miter;stroke-miterlimit:4;stroke-dasharray:none;stroke-opacity:1"
       d="m 107.61317,47.137031 0.0654,29.710392"
       id="path961"
       sodipodi:nodetypes="cc" />
    <g
       aria-label="50%"
       id="text1021"
       style="font-style:normal;font-weight:normal;font-size:4.7625px;line-height:1.25;font-family:sans-serif;fill:#000000;fill-opacity:1;stroke:none;stroke-width:0.264583"
       transform="matrix(1.3242654,0,0,1.3242654,-29.479935,-22.72909)">
      <path
         d="m 91.0595,66.554784 h 1.844074 v 0.395324 h -1.413868 v 0.851111 q 0.10232,-0.03488 0.204639,-0.05116 0.102319,-0.0186 0.204639,-0.0186 0.58136,0 0.920874,0.318585 0.339514,0.318585 0.339514,0.862738 0,0.560431 -0.348816,0.87204 -0.348816,0.309283 -0.983661,0.309283 -0.218591,0 -0.446484,-0.03721 -0.225568,-0.03721 -0.467414,-0.111621 V 69.47321 q 0.20929,0.113947 0.432532,0.169757 0.223242,0.05581 0.472064,0.05581 0.402301,0 0.637171,-0.211615 0.234869,-0.211615 0.234869,-0.574384 0,-0.362768 -0.234869,-0.574383 -0.23487,-0.211615 -0.637171,-0.211615 -0.18836,0 -0.376721,0.04186 -0.186035,0.04186 -0.381372,0.130224 z"
         style="font-size:4.7625px;stroke-width:0.264583"
         id="path1015" />
      <path
         d="m 95.089486,66.864067 q -0.362768,0 -0.546478,0.358118 -0.181384,0.355792 -0.181384,1.072027 0,0.71391 0.181384,1.072028 0.18371,0.355792 0.546478,0.355792 0.365094,0 0.546479,-0.355792 0.183709,-0.358118 0.183709,-1.072028 0,-0.716235 -0.183709,-1.072027 -0.181385,-0.358118 -0.546479,-0.358118 z m 0,-0.37207 q 0.583686,0 0.890644,0.462762 0.309283,0.460437 0.309283,1.339453 0,0.876691 -0.309283,1.339453 -0.306958,0.460437 -0.890644,0.460437 -0.583685,0 -0.892968,-0.460437 -0.306958,-0.462762 -0.306958,-1.339453 0,-0.879016 0.306958,-1.339453 0.309283,-0.462762 0.892968,-0.462762 z"
         style="font-size:4.7625px;stroke-width:0.264583"
         id="path1017" />
      <path
         d="m 100.06825,68.498851 q -0.202311,0 -0.318583,0.172083 -0.113947,0.172082 -0.113947,0.47904 0,0.302307 0.113947,0.476715 0.116272,0.172083 0.318583,0.172083 0.19766,0 0.31161,-0.172083 0.11627,-0.174408 0.11627,-0.476715 0,-0.304632 -0.11627,-0.476715 -0.11395,-0.174408 -0.31161,-0.174408 z m 0,-0.295331 q 0.36742,0 0.58369,0.255799 0.21626,0.255798 0.21626,0.690655 0,0.434857 -0.21859,0.690656 -0.21626,0.253472 -0.58136,0.253472 -0.372068,0 -0.588334,-0.253472 -0.216266,-0.255799 -0.216266,-0.690656 0,-0.437183 0.216266,-0.690655 0.218591,-0.255799 0.588334,-0.255799 z m -2.399851,-1.416192 q -0.199988,0 -0.31626,0.174408 -0.113947,0.172082 -0.113947,0.474389 0,0.306958 0.113947,0.479041 0.113946,0.172082 0.31626,0.172082 0.202313,0 0.316259,-0.172082 0.116272,-0.172083 0.116272,-0.479041 0,-0.299981 -0.116272,-0.474389 -0.116272,-0.174408 -0.316259,-0.174408 z m 2.099871,-0.295331 h 0.37207 l -2.17196,3.602105 h -0.37207 z m -2.099871,0 q 0.367419,0 0.58601,0.255798 0.218592,0.253473 0.218592,0.68833 0,0.439508 -0.218592,0.692981 -0.216266,0.253473 -0.58601,0.253473 -0.369745,0 -0.586011,-0.253473 -0.213941,-0.255798 -0.213941,-0.692981 0,-0.432531 0.216266,-0.68833 0.216266,-0.255798 0.583686,-0.255798 z"
         style="font-size:4.7625px;stroke-width:0.264583"
         id="path1019" />
    </g>
    <path
       style="fill:none;stroke:#ff0000;stroke-width:0.264583px;stroke-linecap:butt;stroke-linejoin:miter;stroke-opacity:1"
       d="M 11.143444,40.247346 H 26.319762"
       id="path1023" />
    <g
       aria-label="50%"
       id="text1027"
       style="font-style:normal;font-weight:normal;font-size:4.7625px;line-height:1.25;font-family:sans-serif;fill:#000000;fill-opacity:1;stroke:none;stroke-width:0.264583"
       transform="matrix(1.3611454,0,0,1.3611454,-39.909461,-25.386359)">
      <path
         d="m 110.6545,66.754682 h 1.84407 v 0.395324 h -1.41386 v 0.851111 q 0.10232,-0.03488 0.20464,-0.05116 0.10232,-0.0186 0.20463,-0.0186 0.58136,0 0.92088,0.318585 0.33951,0.318585 0.33951,0.862738 0,0.560431 -0.34881,0.87204 -0.34882,0.309283 -0.98366,0.309283 -0.21859,0 -0.44649,-0.03721 -0.22557,-0.03721 -0.46741,-0.111621 v -0.472064 q 0.20929,0.113946 0.43253,0.169757 0.22324,0.05581 0.47206,0.05581 0.40231,0 0.63717,-0.211615 0.23487,-0.211615 0.23487,-0.574384 0,-0.362768 -0.23487,-0.574383 -0.23486,-0.211615 -0.63717,-0.211615 -0.18836,0 -0.37672,0.04186 -0.18603,0.04186 -0.38137,0.130225 z"
         style="font-size:4.7625px;stroke-width:0.264583"
         id="path1022" />
      <path
         d="m 114.68449,67.063965 q -0.36277,0 -0.54648,0.358118 -0.18138,0.355792 -0.18138,1.072027 0,0.71391 0.18138,1.072028 0.18371,0.355792 0.54648,0.355792 0.36509,0 0.54648,-0.355792 0.18371,-0.358118 0.18371,-1.072028 0,-0.716235 -0.18371,-1.072027 -0.18139,-0.358118 -0.54648,-0.358118 z m 0,-0.37207 q 0.58368,0 0.89064,0.462762 0.30928,0.460437 0.30928,1.339453 0,0.876691 -0.30928,1.339453 -0.30696,0.460437 -0.89064,0.460437 -0.58369,0 -0.89297,-0.460437 -0.30696,-0.462762 -0.30696,-1.339453 0,-0.879016 0.30696,-1.339453 0.30928,-0.462762 0.89297,-0.462762 z"
         style="font-size:4.7625px;stroke-width:0.264583"
         id="path1024" />
      <path
         d="m 119.66325,68.698749 q -0.20231,0 -0.31858,0.172082 -0.11395,0.172083 -0.11395,0.479041 0,0.302307 0.11395,0.476715 0.11627,0.172082 0.31858,0.172082 0.19767,0 0.31161,-0.172082 0.11627,-0.174408 0.11627,-0.476715 0,-0.304633 -0.11627,-0.476715 -0.11394,-0.174408 -0.31161,-0.174408 z m 0,-0.295331 q 0.36742,0 0.58369,0.255798 0.21626,0.255799 0.21626,0.690656 0,0.434857 -0.21859,0.690655 -0.21626,0.253473 -0.58136,0.253473 -0.37207,0 -0.58833,-0.253473 -0.21627,-0.255798 -0.21627,-0.690655 0,-0.437183 0.21627,-0.690656 0.21859,-0.255798 0.58833,-0.255798 z m -2.39985,-1.416193 q -0.19999,0 -0.31626,0.174408 -0.11395,0.172083 -0.11395,0.47439 0,0.306958 0.11395,0.479041 0.11395,0.172082 0.31626,0.172082 0.20231,0 0.31626,-0.172082 0.11627,-0.172083 0.11627,-0.479041 0,-0.299982 -0.11627,-0.47439 -0.11627,-0.174408 -0.31626,-0.174408 z m 2.09987,-0.29533 h 0.37207 L 117.56338,70.294 h -0.37207 z m -2.09987,0 q 0.36742,0 0.58601,0.255798 0.21859,0.253473 0.21859,0.68833 0,0.439508 -0.21859,0.692981 -0.21627,0.253473 -0.58601,0.253473 -0.36975,0 -0.58601,-0.253473 -0.21394,-0.255798 -0.21394,-0.692981 0,-0.432532 0.21626,-0.68833 0.21627,-0.255798 0.58369,-0.255798 z"
         style="font-size:4.7625px;stroke-width:0.264583"
         id="path1026" />
    </g>
  </g>
</svg>
