<?xml version="1.0" encoding="UTF-8" standalone="no"?>
<svg
   xmlns:dc="http://purl.org/dc/elements/1.1/"
   xmlns:cc="http://creativecommons.org/ns#"
   xmlns:rdf="http://www.w3.org/1999/02/22-rdf-syntax-ns#"
   xmlns:svg="http://www.w3.org/2000/svg"
   xmlns="http://www.w3.org/2000/svg"
   xmlns:sodipodi="http://sodipodi.sourceforge.net/DTD/sodipodi-0.dtd"
   xmlns:inkscape="http://www.inkscape.org/namespaces/inkscape"
   width="17in"
   height="11in"
   viewBox="0 0 431.8 279.4"
   version="1.1"
   id="svg8"
   inkscape:version="1.0.2 (e86c870879, 2021-01-15)"
   sodipodi:docname="qqplot.svg">
  <defs
     id="defs2">
    <marker
       style="overflow:visible;"
       id="Arrow1Lend"
       refX="0.0"
       refY="0.0"
       orient="auto"
       inkscape:stockid="Arrow1Lend"
       inkscape:isstock="true">
      <path
         transform="scale(0.8) rotate(180) translate(12.5,0)"
         style="fill-rule:evenodd;stroke:#000000;stroke-width:1pt;stroke-opacity:1;fill:#000000;fill-opacity:1"
         d="M 0.0,0.0 L 5.0,-5.0 L -12.5,0.0 L 5.0,5.0 L 0.0,0.0 z "
         id="path838" />
    </marker>
    <marker
       style="overflow:visible"
       id="Arrow2Lstart"
       refX="0.0"
       refY="0.0"
       orient="auto"
       inkscape:stockid="Arrow2Lstart"
       inkscape:isstock="true">
      <path
         transform="scale(1.1) translate(1,0)"
         d="M 8.7185878,4.0337352 L -2.2072895,0.016013256 L 8.7185884,-4.0017078 C 6.9730900,-1.6296469 6.9831476,1.6157441 8.7185878,4.0337352 z "
         style="fill-rule:evenodd;stroke-width:0.625;stroke-linejoin:round;stroke:#000000;stroke-opacity:1;fill:#000000;fill-opacity:1"
         id="path853" />
    </marker>
  </defs>
  <sodipodi:namedview
     id="base"
     pagecolor="#ffffff"
     bordercolor="#666666"
     borderopacity="1.0"
     inkscape:pageopacity="0.0"
     inkscape:pageshadow="2"
     inkscape:zoom="0.71"
     inkscape:cx="815.20236"
     inkscape:cy="500.30294"
     inkscape:document-units="mm"
     inkscape:current-layer="layer1"
     inkscape:document-rotation="0"
     showgrid="false"
     units="in"
     inkscape:window-width="1920"
     inkscape:window-height="1009"
     inkscape:window-x="0"
     inkscape:window-y="34"
     inkscape:window-maximized="1" />
  <metadata
     id="metadata5">
    <rdf:RDF>
      <cc:Work
         rdf:about="">
        <dc:format>image/svg+xml</dc:format>
        <dc:type
           rdf:resource="http://purl.org/dc/dcmitype/StillImage" />
        <dc:title></dc:title>
      </cc:Work>
    </rdf:RDF>
  </metadata>
  <g
     inkscape:label="Layer 1"
     inkscape:groupmode="layer"
     id="layer1">
    <path
       style="fill:none;stroke:#000000;stroke-width:0.565;stroke-linecap:butt;stroke-linejoin:miter;stroke-opacity:1;stroke-miterlimit:4;stroke-dasharray:none;marker-start:url(#Arrow2Lstart);marker-end:url(#Arrow1Lend)"
       d="M 98.286542,59.596792 V 206.97172 H 305.33001"
       id="path833" />
    <path
       style="fill:none;stroke:#00c4a8;stroke-width:0.365;stroke-linecap:butt;stroke-linejoin:miter;stroke-opacity:1;stroke-miterlimit:4;stroke-dasharray:none"
       d="M 98.28654,206.97172 226.90851,78.349749"
       id="path1149" />
    <path
       style="fill:none;stroke:#000000;stroke-width:0.365;stroke-linecap:butt;stroke-linejoin:miter;stroke-opacity:1;stroke-miterlimit:4;stroke-dasharray:1.46,0.365;stroke-dashoffset:0"
       d="M 98.28654,206.97172 270.92764,131.2305"
       id="path1151" />
    <path
       style="fill:none;stroke:#000000;stroke-width:0.26458299;stroke-linecap:butt;stroke-linejoin:miter;stroke-opacity:1;stroke-miterlimit:4;stroke-dasharray:1.58749792,0.26458299;stroke-dashoffset:0"
       d="M 98.28654,206.97172 151.28588,75.377833"
       id="path1153" />
    <g
       aria-label="y=x
Identical"
       id="text1157"
       style="font-style:normal;font-weight:normal;font-size:10.5833px;line-height:1.25;font-family:sans-serif;fill:#000000;fill-opacity:1;stroke:none;stroke-width:0.264583">
      <path
         d="m 236.46719,70.649189 q -0.40308,1.033525 -0.78548,1.34875 -0.38241,0.315225 -1.02319,0.315225 h -0.75964 V 71.51735 h 0.5581 q 0.39274,0 0.60978,-0.186035 0.21704,-0.186034 0.48059,-0.878496 l 0.17053,-0.434081 -2.34093,-5.694725 h 1.00768 l 1.80867,4.526841 1.80867,-4.526841 h 1.00769 z"
         style="stroke-width:0.264583"
         id="path1208" />
      <path
         d="m 240.44626,65.305862 h 6.6249 v 0.868162 h -6.6249 z m 0,2.108392 h 6.6249 v 0.878497 h -6.6249 z"
         style="stroke-width:0.264583"
         id="path1210" />
      <path
         d="m 254.00095,64.324013 -2.09289,2.816357 2.20141,2.971385 h -1.12138 L 251.30344,67.838 249.6188,70.111755 h -1.12138 l 2.24792,-3.028229 -2.05672,-2.759513 H 249.81 l 1.53478,2.061883 1.53479,-2.061883 z"
         style="stroke-width:0.264583"
         id="path1212" />
      <path
         d="m 234.10041,75.625613 h 1.04387 v 7.715267 h -1.04387 z"
         style="stroke-width:0.264583"
         id="path1214" />
      <path
         d="m 240.98886,78.431634 v -3.131581 h 0.95084 v 8.040827 h -0.95084 v -0.868161 q -0.29972,0.516762 -0.75964,0.769976 -0.45475,0.248046 -1.09554,0.248046 -1.04902,0 -1.71048,-0.837155 -0.65629,-0.837156 -0.65629,-2.201409 0,-1.364254 0.65629,-2.201409 0.66146,-0.837156 1.71048,-0.837156 0.64079,0 1.09554,0.253214 0.45992,0.248046 0.75964,0.764808 z m -3.2401,2.020543 q 0,1.049028 0.42891,1.648472 0.43408,0.594278 1.18856,0.594278 0.75447,0 1.18855,-0.594278 0.43408,-0.599444 0.43408,-1.648472 0,-1.049029 -0.43408,-1.643306 -0.43408,-0.599444 -1.18855,-0.599444 -0.75448,0 -1.18856,0.599444 -0.42891,0.594277 -0.42891,1.643306 z"
         style="stroke-width:0.264583"
         id="path1216" />
      <path
         d="m 248.84882,80.209298 v 0.465087 h -4.37181 q 0.062,0.981849 0.58911,1.498611 0.53226,0.511595 1.47794,0.511595 0.54777,0 1.05936,-0.134358 0.51677,-0.134358 1.02319,-0.403075 v 0.899167 q -0.51159,0.217041 -1.04903,0.330728 -0.53743,0.113688 -1.09036,0.113688 -1.38493,0 -2.19625,-0.80615 -0.80615,-0.806149 -0.80615,-2.180738 0,-1.421098 0.76481,-2.253085 0.76998,-0.837156 2.07222,-0.837156 1.16789,0 1.84484,0.754474 0.68213,0.749305 0.68213,2.041212 z m -0.95084,-0.279052 q -0.0103,-0.780311 -0.43925,-1.245398 -0.42375,-0.465086 -1.12654,-0.465086 -0.79582,0 -1.27641,0.449583 -0.47542,0.449584 -0.54777,1.266069 z"
         style="stroke-width:0.264583"
         id="path1218" />
      <path
         d="m 255.2205,79.847564 v 3.493316 h -0.95084 v -3.46231 q 0,-0.821653 -0.32039,-1.229895 -0.32039,-0.408243 -0.96118,-0.408243 -0.76998,0 -1.21439,0.490925 -0.44442,0.490924 -0.44442,1.338415 v 3.271108 h -0.95601 v -5.787742 h 0.95601 v 0.899167 q 0.34107,-0.52193 0.80098,-0.780312 0.46509,-0.258381 1.0697,-0.258381 0.99735,0 1.50895,0.620115 0.51159,0.614948 0.51159,1.813837 z"
         style="stroke-width:0.264583"
         id="path1220" />
      <path
         d="m 258.05753,75.909833 v 1.643305 h 1.95853 v 0.738971 h -1.95853 v 3.141917 q 0,0.707965 0.19121,0.909502 0.19636,0.201537 0.79064,0.201537 h 0.97668 v 0.795815 h -0.97668 q -1.1007,0 -1.51928,-0.408243 -0.41858,-0.41341 -0.41858,-1.498611 v -3.141917 h -0.69763 v -0.738971 h 0.69763 v -1.643305 z"
         style="stroke-width:0.264583"
         id="path1222" />
      <path
         d="m 261.26663,77.553138 h 0.95084 v 5.787742 h -0.95084 z m 0,-2.253085 h 0.95084 v 1.204057 h -0.95084 z"
         style="stroke-width:0.264583"
         id="path1224" />
      <path
         d="m 268.37211,77.775346 v 0.888832 q -0.40307,-0.222208 -0.81131,-0.330728 -0.40308,-0.113688 -0.81649,-0.113688 -0.925,0 -1.4366,0.589109 -0.51159,0.583942 -0.51159,1.643306 0,1.059363 0.51159,1.648472 0.5116,0.583942 1.4366,0.583942 0.41341,0 0.81649,-0.10852 0.40824,-0.113688 0.81131,-0.335896 v 0.878497 q -0.3979,0.186035 -0.82682,0.279052 -0.42374,0.09302 -0.90433,0.09302 -1.30741,0 -2.07739,-0.821653 -0.76997,-0.821652 -0.76997,-2.216911 0,-1.41593 0.77514,-2.227248 0.78031,-0.811317 2.13423,-0.811317 0.43925,0 0.85783,0.09302 0.41858,0.08785 0.81131,0.268717 z"
         style="stroke-width:0.264583"
         id="path1226" />
      <path
         d="m 272.65608,80.431506 q -1.15238,0 -1.5968,0.263549 -0.44441,0.263549 -0.44441,0.899167 0,0.506427 0.33072,0.80615 0.3359,0.294555 0.90951,0.294555 0.79064,0 1.26606,-0.558104 0.48059,-0.563271 0.48059,-1.493444 v -0.211873 z m 1.89652,-0.39274 v 3.302114 h -0.95085 v -0.878497 q -0.32556,0.527098 -0.81131,0.780312 -0.48576,0.248046 -1.18856,0.248046 -0.88883,0 -1.41593,-0.496092 -0.52193,-0.50126 -0.52193,-1.338415 0,-0.976682 0.65112,-1.472774 0.65629,-0.496092 1.95337,-0.496092 h 1.33324 v -0.09302 q 0,-0.656289 -0.43408,-1.012855 -0.42891,-0.361734 -1.20922,-0.361734 -0.49609,0 -0.96635,0.118855 -0.47025,0.118856 -0.90433,0.356566 v -0.878496 q 0.52193,-0.201538 1.01285,-0.299722 0.49093,-0.103353 0.95601,-0.103353 1.25574,0 1.87585,0.651121 0.62012,0.651121 0.62012,1.974033 z"
         style="stroke-width:0.264583"
         id="path1228" />
      <path
         d="m 276.51113,75.300053 h 0.95084 v 8.040827 h -0.95084 z"
         style="stroke-width:0.264583"
         id="path1230" />
    </g>
    <g
       aria-label="Linearly
dependent"
       id="text1163"
       style="font-style:normal;font-weight:normal;font-size:10.5833px;line-height:1.25;font-family:sans-serif;fill:#000000;fill-opacity:1;stroke:none;stroke-width:0.264583">
      <path
         d="m 124.96026,47.041008 h 1.04386 v 6.836771 h 3.75686 v 0.878496 h -4.80072 z"
         style="stroke-width:0.264583"
         id="path1233" />
      <path
         d="m 130.81518,48.968533 h 0.95084 v 5.787742 h -0.95084 z m 0,-2.253085 h 0.95084 v 1.204057 h -0.95084 z"
         style="stroke-width:0.264583"
         id="path1235" />
      <path
         d="m 138.56662,51.262959 v 3.493316 h -0.95085 v -3.46231 q 0,-0.821652 -0.32039,-1.229895 -0.32039,-0.408242 -0.96118,-0.408242 -0.76998,0 -1.21439,0.490924 -0.44442,0.490925 -0.44442,1.338415 v 3.271108 h -0.95601 v -5.787742 h 0.95601 V 49.8677 q 0.34107,-0.52193 0.80099,-0.780311 0.46508,-0.258382 1.06969,-0.258382 0.99736,0 1.50895,0.620115 0.5116,0.614948 0.5116,1.813837 z"
         style="stroke-width:0.264583"
         id="path1237" />
      <path
         d="m 145.41372,51.624693 v 0.465087 h -4.37181 q 0.062,0.981849 0.58911,1.498612 0.53227,0.511595 1.47794,0.511595 0.54777,0 1.05936,-0.134359 0.51677,-0.134358 1.02319,-0.403075 v 0.899167 q -0.51159,0.217041 -1.04902,0.330729 -0.53744,0.113687 -1.09037,0.113687 -1.38493,0 -2.19624,-0.806149 -0.80615,-0.80615 -0.80615,-2.180739 0,-1.421097 0.7648,-2.253085 0.76998,-0.837156 2.07222,-0.837156 1.16789,0 1.84485,0.754474 0.68212,0.749306 0.68212,2.041212 z m -0.95084,-0.279051 q -0.0103,-0.780312 -0.43925,-1.245399 -0.42374,-0.465086 -1.12654,-0.465086 -0.79582,0 -1.27641,0.449584 -0.47542,0.449583 -0.54776,1.266068 z"
         style="stroke-width:0.264583"
         id="path1239" />
      <path
         d="m 149.60467,51.846901 q -1.15238,0 -1.5968,0.263549 -0.44442,0.263549 -0.44442,0.899167 0,0.506428 0.33073,0.80615 0.3359,0.294555 0.90951,0.294555 0.79064,0 1.26606,-0.558104 0.48059,-0.563271 0.48059,-1.493444 v -0.211873 z m 1.89652,-0.392739 v 3.302113 h -0.95085 v -0.878496 q -0.32556,0.527098 -0.81131,0.780311 -0.48576,0.248046 -1.18856,0.248046 -0.88883,0 -1.41593,-0.496092 -0.52193,-0.50126 -0.52193,-1.338415 0,-0.976682 0.65112,-1.472774 0.65629,-0.496092 1.95337,-0.496092 h 1.33324 v -0.09302 q 0,-0.656289 -0.43408,-1.012855 -0.42891,-0.361734 -1.20922,-0.361734 -0.49609,0 -0.96635,0.118855 -0.47025,0.118856 -0.90433,0.356567 v -0.878497 q 0.52193,-0.201537 1.01285,-0.299722 0.49093,-0.103353 0.95601,-0.103353 1.25574,0 1.87585,0.651121 0.62012,0.651121 0.62012,1.974034 z"
         style="stroke-width:0.264583"
         id="path1241" />
      <path
         d="m 156.81351,49.857365 q -0.1602,-0.09302 -0.3514,-0.134358 -0.18604,-0.04651 -0.41341,-0.04651 -0.80615,0 -1.24023,0.527098 -0.42892,0.52193 -0.42892,1.503779 v 3.0489 h -0.95601 v -5.787742 h 0.95601 V 49.8677 q 0.29973,-0.527098 0.78032,-0.780311 0.48058,-0.258382 1.16788,-0.258382 0.0982,0 0.21704,0.0155 0.11885,0.01033 0.26355,0.03617 z"
         style="stroke-width:0.264583"
         id="path1243" />
      <path
         d="m 157.81086,46.715448 h 0.95084 v 8.040827 h -0.95084 z"
         style="stroke-width:0.264583"
         id="path1245" />
      <path
         d="m 163.15935,55.293708 q -0.40307,1.033526 -0.78548,1.348751 -0.3824,0.315225 -1.02319,0.315225 h -0.75964 V 56.16187 h 0.55811 q 0.39274,0 0.60978,-0.186035 0.21704,-0.186034 0.48059,-0.878496 l 0.17053,-0.434081 -2.34094,-5.694725 h 1.00769 l 1.80867,4.526841 1.80867,-4.526841 h 1.00769 z"
         style="stroke-width:0.264583"
         id="path1247" />
      <path
         d="m 128.72746,63.076154 v -3.131582 h 0.95084 V 67.9854 h -0.95084 v -0.868162 q -0.29973,0.516763 -0.75965,0.769977 -0.45475,0.248046 -1.09553,0.248046 -1.04903,0 -1.71049,-0.837156 -0.65629,-0.837155 -0.65629,-2.201409 0,-1.364253 0.65629,-2.201409 0.66146,-0.837155 1.71049,-0.837155 0.64078,0 1.09553,0.253214 0.45992,0.248046 0.75965,0.764808 z m -3.24011,2.020542 q 0,1.049029 0.42892,1.648473 0.43408,0.594277 1.18855,0.594277 0.75447,0 1.18855,-0.594277 0.43409,-0.599444 0.43409,-1.648473 0,-1.049028 -0.43409,-1.643305 -0.43408,-0.599445 -1.18855,-0.599445 -0.75447,0 -1.18855,0.599445 -0.42892,0.594277 -0.42892,1.643305 z"
         style="stroke-width:0.264583"
         id="path1249" />
      <path
         d="m 136.58742,64.853818 v 0.465086 h -4.37182 q 0.062,0.981849 0.58911,1.498612 0.53227,0.511595 1.47794,0.511595 0.54777,0 1.05937,-0.134358 0.51676,-0.134358 1.02319,-0.403075 v 0.899167 q -0.5116,0.21704 -1.04903,0.330728 -0.53743,0.113688 -1.09037,0.113688 -1.38492,0 -2.19624,-0.80615 -0.80615,-0.80615 -0.80615,-2.180738 0,-1.421098 0.76481,-2.253086 0.76997,-0.837155 2.07222,-0.837155 1.16788,0 1.84484,0.754473 0.68213,0.749306 0.68213,2.041213 z m -0.95085,-0.279052 q -0.0103,-0.780312 -0.43925,-1.245398 -0.42374,-0.465086 -1.12654,-0.465086 -0.79581,0 -1.2764,0.449583 -0.47542,0.449584 -0.54777,1.266069 z"
         style="stroke-width:0.264583"
         id="path1251" />
      <path
         d="m 139.06788,67.117238 v 3.069571 h -0.95602 v -7.989151 h 0.95602 v 0.878496 q 0.29972,-0.516762 0.75447,-0.764808 0.45992,-0.253214 1.09554,-0.253214 1.05419,0 1.71048,0.837155 0.66146,0.837156 0.66146,2.201409 0,1.364254 -0.66146,2.201409 -0.65629,0.837156 -1.71048,0.837156 -0.63562,0 -1.09554,-0.248046 -0.45475,-0.253214 -0.75447,-0.769977 z m 3.23493,-2.020542 q 0,-1.049028 -0.43408,-1.643305 -0.42891,-0.599445 -1.18339,-0.599445 -0.75447,0 -1.18855,0.599445 -0.42891,0.594277 -0.42891,1.643305 0,1.049029 0.42891,1.648473 0.43408,0.594277 1.18855,0.594277 0.75448,0 1.18339,-0.594277 0.43408,-0.599444 0.43408,-1.648473 z"
         style="stroke-width:0.264583"
         id="path1253" />
      <path
         d="m 149.81654,64.853818 v 0.465086 h -4.37181 q 0.062,0.981849 0.58911,1.498612 0.53226,0.511595 1.47794,0.511595 0.54777,0 1.05936,-0.134358 0.51676,-0.134358 1.02319,-0.403075 v 0.899167 q -0.51159,0.21704 -1.04903,0.330728 -0.53743,0.113688 -1.09037,0.113688 -1.38492,0 -2.19624,-0.80615 -0.80615,-0.80615 -0.80615,-2.180738 0,-1.421098 0.76481,-2.253086 0.76998,-0.837155 2.07222,-0.837155 1.16788,0 1.84484,0.754473 0.68213,0.749306 0.68213,2.041213 z m -0.95084,-0.279052 q -0.0103,-0.780312 -0.43925,-1.245398 -0.42375,-0.465086 -1.12654,-0.465086 -0.79582,0 -1.27641,0.449583 -0.47542,0.449584 -0.54777,1.266069 z"
         style="stroke-width:0.264583"
         id="path1255" />
      <path
         d="M 156.18822,64.492084 V 67.9854 h -0.95084 v -3.46231 q 0,-0.821653 -0.32039,-1.229895 -0.3204,-0.408243 -0.96118,-0.408243 -0.76998,0 -1.21439,0.490925 -0.44442,0.490924 -0.44442,1.338415 V 67.9854 h -0.95601 v -5.787742 h 0.95601 v 0.899167 q 0.34106,-0.521931 0.80098,-0.780312 0.46509,-0.258381 1.0697,-0.258381 0.99735,0 1.50895,0.620115 0.51159,0.614948 0.51159,1.813837 z"
         style="stroke-width:0.264583"
         id="path1257" />
      <path
         d="m 161.89328,63.076154 v -3.131582 h 0.95085 V 67.9854 h -0.95085 v -0.868162 q -0.29972,0.516763 -0.75964,0.769977 -0.45475,0.248046 -1.09553,0.248046 -1.04903,0 -1.71049,-0.837156 -0.65629,-0.837155 -0.65629,-2.201409 0,-1.364253 0.65629,-2.201409 0.66146,-0.837155 1.71049,-0.837155 0.64078,0 1.09553,0.253214 0.45992,0.248046 0.75964,0.764808 z m -3.2401,2.020542 q 0,1.049029 0.42891,1.648473 0.43409,0.594277 1.18856,0.594277 0.75447,0 1.18855,-0.594277 0.43408,-0.599444 0.43408,-1.648473 0,-1.049028 -0.43408,-1.643305 -0.43408,-0.599445 -1.18855,-0.599445 -0.75447,0 -1.18856,0.599445 -0.42891,0.594277 -0.42891,1.643305 z"
         style="stroke-width:0.264583"
         id="path1259" />
      <path
         d="m 169.75324,64.853818 v 0.465086 h -4.37181 q 0.062,0.981849 0.58911,1.498612 0.53227,0.511595 1.47794,0.511595 0.54777,0 1.05937,-0.134358 0.51676,-0.134358 1.02319,-0.403075 v 0.899167 q -0.5116,0.21704 -1.04903,0.330728 -0.53744,0.113688 -1.09037,0.113688 -1.38493,0 -2.19624,-0.80615 -0.80615,-0.80615 -0.80615,-2.180738 0,-1.421098 0.76481,-2.253086 0.76997,-0.837155 2.07221,-0.837155 1.16789,0 1.84485,0.754473 0.68212,0.749306 0.68212,2.041213 z m -0.95084,-0.279052 q -0.0103,-0.780312 -0.43925,-1.245398 -0.42374,-0.465086 -1.12654,-0.465086 -0.79581,0 -1.2764,0.449583 -0.47543,0.449584 -0.54777,1.266069 z"
         style="stroke-width:0.264583"
         id="path1261" />
      <path
         d="M 176.12493,64.492084 V 67.9854 h -0.95084 v -3.46231 q 0,-0.821653 -0.3204,-1.229895 -0.32039,-0.408243 -0.96118,-0.408243 -0.76997,0 -1.21439,0.490925 -0.44441,0.490924 -0.44441,1.338415 V 67.9854 h -0.95601 v -5.787742 h 0.95601 v 0.899167 q 0.34106,-0.521931 0.80098,-0.780312 0.46508,-0.258381 1.0697,-0.258381 0.99735,0 1.50894,0.620115 0.5116,0.614948 0.5116,1.813837 z"
         style="stroke-width:0.264583"
         id="path1263" />
      <path
         d="m 178.96195,60.554352 v 1.643306 h 1.95853 v 0.73897 h -1.95853 v 3.141917 q 0,0.707965 0.19121,0.909503 0.19637,0.201537 0.79064,0.201537 h 0.97668 V 67.9854 h -0.97668 q -1.1007,0 -1.51928,-0.408243 -0.41858,-0.41341 -0.41858,-1.498612 v -3.141917 h -0.69763 v -0.73897 h 0.69763 v -1.643306 z"
         style="stroke-width:0.264583"
         id="path1265" />
    </g>
    <g
       aria-label="Linearly
dependent"
       id="text1169"
       style="font-style:normal;font-weight:normal;font-size:10.5833px;line-height:1.25;font-family:sans-serif;fill:#000000;fill-opacity:1;stroke:none;stroke-width:0.264583">
      <path
         d="m 280.49148,111.25415 h 1.04386 v 6.83677 h 3.75687 v 0.87849 h -4.80073 z"
         style="stroke-width:0.264583"
         id="path1173" />
      <path
         d="m 286.3464,113.18167 h 0.95085 v 5.78774 h -0.95085 z m 0,-2.25308 h 0.95085 v 1.20405 h -0.95085 z"
         style="stroke-width:0.264583"
         id="path1175" />
      <path
         d="m 294.09784,115.4761 v 3.49331 H 293.147 v -3.46231 q 0,-0.82165 -0.32039,-1.22989 -0.3204,-0.40824 -0.96118,-0.40824 -0.76998,0 -1.21439,0.49092 -0.44442,0.49093 -0.44442,1.33842 v 3.2711 h -0.95601 v -5.78774 h 0.95601 v 0.89917 q 0.34106,-0.52193 0.80098,-0.78031 0.46509,-0.25838 1.0697,-0.25838 0.99735,0 1.50895,0.62011 0.51159,0.61495 0.51159,1.81384 z"
         style="stroke-width:0.264583"
         id="path1177" />
      <path
         d="m 300.94495,115.83783 v 0.46509 h -4.37181 q 0.062,0.98185 0.58911,1.49861 0.53226,0.5116 1.47794,0.5116 0.54777,0 1.05936,-0.13436 0.51676,-0.13436 1.02319,-0.40308 v 0.89917 q -0.51159,0.21704 -1.04903,0.33073 -0.53743,0.11368 -1.09037,0.11368 -1.38492,0 -2.19624,-0.80614 -0.80615,-0.80615 -0.80615,-2.18074 0,-1.4211 0.76481,-2.25309 0.76998,-0.83715 2.07222,-0.83715 1.16788,0 1.84484,0.75447 0.68213,0.74931 0.68213,2.04121 z m -0.95084,-0.27905 q -0.0103,-0.78031 -0.43925,-1.2454 -0.42375,-0.46508 -1.12654,-0.46508 -0.79582,0 -1.27641,0.44958 -0.47542,0.44958 -0.54777,1.26607 z"
         style="stroke-width:0.264583"
         id="path1179" />
      <path
         d="m 305.13589,116.06004 q -1.15238,0 -1.59679,0.26355 -0.44442,0.26355 -0.44442,0.89917 0,0.50642 0.33073,0.80615 0.3359,0.29455 0.9095,0.29455 0.79065,0 1.26607,-0.5581 0.48059,-0.56327 0.48059,-1.49345 v -0.21187 z m 1.89652,-0.39274 v 3.30211 h -0.95084 v -0.87849 q -0.32556,0.5271 -0.81132,0.78031 -0.48575,0.24804 -1.18855,0.24804 -0.88883,0 -1.41593,-0.49609 -0.52193,-0.50126 -0.52193,-1.33841 0,-0.97668 0.65112,-1.47278 0.65629,-0.49609 1.95336,-0.49609 h 1.33325 v -0.093 q 0,-0.65628 -0.43408,-1.01285 -0.42891,-0.36173 -1.20922,-0.36173 -0.4961,0 -0.96635,0.11885 -0.47026,0.11886 -0.90434,0.35657 v -0.8785 q 0.52193,-0.20154 1.01286,-0.29972 0.49092,-0.10335 0.95601,-0.10335 1.25573,0 1.87585,0.65112 0.62011,0.65112 0.62011,1.97403 z"
         style="stroke-width:0.264583"
         id="path1181" />
      <path
         d="m 312.34473,114.0705 q -0.16019,-0.093 -0.3514,-0.13435 -0.18603,-0.0465 -0.41341,-0.0465 -0.80615,0 -1.24023,0.52709 -0.42891,0.52193 -0.42891,1.50378 v 3.0489 h -0.95601 v -5.78774 h 0.95601 v 0.89917 q 0.29972,-0.5271 0.78031,-0.78031 0.48059,-0.25838 1.16789,-0.25838 0.0982,0 0.21704,0.0155 0.11885,0.0103 0.26355,0.0362 z"
         style="stroke-width:0.264583"
         id="path1183" />
      <path
         d="m 313.34209,110.92859 h 0.95084 v 8.04082 h -0.95084 z"
         style="stroke-width:0.264583"
         id="path1185" />
      <path
         d="m 318.69058,119.50685 q -0.40307,1.03352 -0.78548,1.34875 -0.3824,0.31522 -1.02319,0.31522 h -0.75964 v -0.79581 h 0.5581 q 0.39274,0 0.60978,-0.18604 0.21704,-0.18603 0.48059,-0.87849 l 0.17053,-0.43408 -2.34093,-5.69473 h 1.00769 l 1.80867,4.52684 1.80867,-4.52684 h 1.00768 z"
         style="stroke-width:0.264583"
         id="path1187" />
      <path
         d="m 284.25868,127.28929 v -3.13158 h 0.95085 v 8.04083 h -0.95085 v -0.86816 q -0.29972,0.51676 -0.75964,0.76997 -0.45475,0.24805 -1.09554,0.24805 -1.04902,0 -1.71048,-0.83716 -0.65629,-0.83715 -0.65629,-2.20141 0,-1.36425 0.65629,-2.2014 0.66146,-0.83716 1.71048,-0.83716 0.64079,0 1.09554,0.25321 0.45992,0.24805 0.75964,0.76481 z m -3.2401,2.02054 q 0,1.04903 0.42891,1.64848 0.43408,0.59427 1.18856,0.59427 0.75447,0 1.18855,-0.59427 0.43408,-0.59945 0.43408,-1.64848 0,-1.04902 -0.43408,-1.6433 -0.43408,-0.59945 -1.18855,-0.59945 -0.75448,0 -1.18856,0.59945 -0.42891,0.59428 -0.42891,1.6433 z"
         style="stroke-width:0.264583"
         id="path1189" />
      <path
         d="m 292.11864,129.06696 v 0.46508 h -4.37181 q 0.062,0.98185 0.58911,1.49861 0.53227,0.5116 1.47794,0.5116 0.54777,0 1.05936,-0.13436 0.51677,-0.13436 1.02319,-0.40307 v 0.89916 q -0.51159,0.21704 -1.04902,0.33073 -0.53744,0.11369 -1.09037,0.11369 -1.38493,0 -2.19624,-0.80615 -0.80615,-0.80615 -0.80615,-2.18074 0,-1.4211 0.7648,-2.25308 0.76998,-0.83716 2.07222,-0.83716 1.16789,0 1.84485,0.75447 0.68212,0.74931 0.68212,2.04122 z m -0.95084,-0.27906 q -0.0103,-0.78031 -0.43925,-1.24539 -0.42374,-0.46509 -1.12654,-0.46509 -0.79582,0 -1.27641,0.44958 -0.47542,0.44959 -0.54776,1.26607 z"
         style="stroke-width:0.264583"
         id="path1191" />
      <path
         d="m 294.5991,131.33038 v 3.06957 h -0.95601 v -7.98915 h 0.95601 v 0.87849 q 0.29973,-0.51676 0.75448,-0.76481 0.45992,-0.25321 1.09553,-0.25321 1.0542,0 1.71049,0.83716 0.66145,0.83715 0.66145,2.2014 0,1.36426 -0.66145,2.20141 -0.65629,0.83716 -1.71049,0.83716 -0.63561,0 -1.09553,-0.24805 -0.45475,-0.25321 -0.75448,-0.76997 z m 3.23494,-2.02055 q 0,-1.04902 -0.43408,-1.6433 -0.42892,-0.59945 -1.18339,-0.59945 -0.75447,0 -1.18855,0.59945 -0.42892,0.59428 -0.42892,1.6433 0,1.04903 0.42892,1.64848 0.43408,0.59427 1.18855,0.59427 0.75447,0 1.18339,-0.59427 0.43408,-0.59945 0.43408,-1.64848 z"
         style="stroke-width:0.264583"
         id="path1193" />
      <path
         d="m 305.34777,129.06696 v 0.46508 h -4.37182 q 0.062,0.98185 0.58911,1.49861 0.53227,0.5116 1.47794,0.5116 0.54777,0 1.05937,-0.13436 0.51676,-0.13436 1.02319,-0.40307 v 0.89916 q -0.5116,0.21704 -1.04903,0.33073 -0.53743,0.11369 -1.09037,0.11369 -1.38492,0 -2.19624,-0.80615 -0.80615,-0.80615 -0.80615,-2.18074 0,-1.4211 0.76481,-2.25308 0.76997,-0.83716 2.07222,-0.83716 1.16788,0 1.84484,0.75447 0.68213,0.74931 0.68213,2.04122 z m -0.95085,-0.27906 q -0.0103,-0.78031 -0.43925,-1.24539 -0.42374,-0.46509 -1.12654,-0.46509 -0.79581,0 -1.2764,0.44958 -0.47542,0.44959 -0.54777,1.26607 z"
         style="stroke-width:0.264583"
         id="path1195" />
      <path
         d="m 311.71945,128.70522 v 3.49332 h -0.95084 v -3.46231 q 0,-0.82165 -0.3204,-1.2299 -0.32039,-0.40824 -0.96117,-0.40824 -0.76998,0 -1.2144,0.49093 -0.44441,0.49092 -0.44441,1.33841 v 3.27111 h -0.95601 v -5.78774 h 0.95601 v 0.89916 q 0.34106,-0.52193 0.80098,-0.78031 0.46509,-0.25838 1.0697,-0.25838 0.99735,0 1.50894,0.62012 0.5116,0.61494 0.5116,1.81383 z"
         style="stroke-width:0.264583"
         id="path1197" />
      <path
         d="m 317.42451,127.28929 v -3.13158 h 0.95084 v 8.04083 h -0.95084 v -0.86816 q -0.29972,0.51676 -0.75964,0.76997 -0.45475,0.24805 -1.09554,0.24805 -1.04903,0 -1.71048,-0.83716 -0.65629,-0.83715 -0.65629,-2.20141 0,-1.36425 0.65629,-2.2014 0.66145,-0.83716 1.71048,-0.83716 0.64079,0 1.09554,0.25321 0.45992,0.24805 0.75964,0.76481 z m -3.2401,2.02054 q 0,1.04903 0.42891,1.64848 0.43408,0.59427 1.18856,0.59427 0.75447,0 1.18855,-0.59427 0.43408,-0.59945 0.43408,-1.64848 0,-1.04902 -0.43408,-1.6433 -0.43408,-0.59945 -1.18855,-0.59945 -0.75448,0 -1.18856,0.59945 -0.42891,0.59428 -0.42891,1.6433 z"
         style="stroke-width:0.264583"
         id="path1199" />
      <path
         d="m 325.28447,129.06696 v 0.46508 h -4.37181 q 0.062,0.98185 0.58911,1.49861 0.53226,0.5116 1.47794,0.5116 0.54777,0 1.05936,-0.13436 0.51677,-0.13436 1.02319,-0.40307 v 0.89916 q -0.51159,0.21704 -1.04903,0.33073 -0.53743,0.11369 -1.09036,0.11369 -1.38493,0 -2.19625,-0.80615 -0.80615,-0.80615 -0.80615,-2.18074 0,-1.4211 0.76481,-2.25308 0.76998,-0.83716 2.07222,-0.83716 1.16789,0 1.84484,0.75447 0.68213,0.74931 0.68213,2.04122 z m -0.95084,-0.27906 q -0.0103,-0.78031 -0.43925,-1.24539 -0.42375,-0.46509 -1.12654,-0.46509 -0.79582,0 -1.27641,0.44958 -0.47542,0.44959 -0.54777,1.26607 z"
         style="stroke-width:0.264583"
         id="path1201" />
      <path
         d="m 331.65616,128.70522 v 3.49332 h -0.95085 v -3.46231 q 0,-0.82165 -0.32039,-1.2299 -0.32039,-0.40824 -0.96118,-0.40824 -0.76997,0 -1.21439,0.49093 -0.44442,0.49092 -0.44442,1.33841 v 3.27111 h -0.95601 v -5.78774 h 0.95601 v 0.89916 q 0.34107,-0.52193 0.80099,-0.78031 0.46508,-0.25838 1.06969,-0.25838 0.99736,0 1.50895,0.62012 0.5116,0.61494 0.5116,1.81383 z"
         style="stroke-width:0.264583"
         id="path1203" />
      <path
         d="m 334.49318,124.76749 v 1.64331 h 1.95853 v 0.73897 h -1.95853 v 3.14191 q 0,0.70797 0.1912,0.90951 0.19637,0.20153 0.79065,0.20153 h 0.97668 v 0.79582 h -0.97668 q -1.1007,0 -1.51928,-0.40824 -0.41858,-0.41341 -0.41858,-1.49862 v -3.14191 h -0.69763 v -0.73897 h 0.69763 v -1.64331 z"
         style="stroke-width:0.264583"
         id="path1205" />
    </g>
  </g>
</svg>
